<svg width="686" height="457" viewBox="0 0 686 457" fill="none" xmlns="http://www.w3.org/2000/svg">
<rect width="686" height="457" fill="white"/>
<circle cx="63" cy="96" r="47" fill="#CA713F"/>
<circle cx="289" cy="236" r="47" fill="#4083B5"/>
<circle cx="63" cy="376" r="47" fill="#CA713F"/>
<circle cx="63" cy="236" r="47" fill="#CA713F"/>
<path d="M254.075 202.494C254.348 202.453 254.536 202.198 254.494 201.925L253.818 197.476C253.777 197.203 253.522 197.015 253.249 197.057C252.976 197.098 252.788 197.353 252.829 197.626L253.431 201.581L249.476 202.182C249.203 202.223 249.015 202.478 249.057 202.751C249.098 203.024 249.353 203.212 249.626 203.171L254.075 202.494ZM109.704 96.4027L253.704 202.403L254.296 201.597L110.296 95.5973L109.704 96.4027Z" fill="black"/>
<path d="M242.354 236.354C242.549 236.158 242.549 235.842 242.354 235.646L239.172 232.464C238.976 232.269 238.66 232.269 238.464 232.464C238.269 232.66 238.269 232.976 238.464 233.172L241.293 236L238.464 238.828C238.269 239.024 238.269 239.34 238.464 239.536C238.66 239.731 238.976 239.731 239.172 239.536L242.354 236.354ZM110 236.5H242V235.5H110V236.5Z" fill="black"/>
<path d="M254.491 271.096C254.544 270.825 254.367 270.562 254.096 270.509L249.679 269.648C249.408 269.595 249.145 269.772 249.092 270.043C249.04 270.314 249.216 270.577 249.488 270.629L253.414 271.395L252.648 275.321C252.595 275.592 252.772 275.855 253.043 275.908C253.314 275.96 253.577 275.784 253.629 275.512L254.491 271.096ZM110.279 368.415L254.279 271.415L253.721 270.585L109.721 367.585L110.279 368.415Z" fill="black"/>
<path d="M9.479 17H7.69775V3.49219H9.479V17ZM14.0991 6.96191L14.1548 8.22363C14.9217 7.25879 15.9237 6.77637 17.1606 6.77637C19.2821 6.77637 20.3521 7.97314 20.3706 10.3667V17H18.6543V10.3574C18.6481 9.63379 18.4811 9.0988 18.1533 8.75244C17.8317 8.40609 17.3276 8.23291 16.6411 8.23291C16.0845 8.23291 15.5959 8.38135 15.1753 8.67822C14.7547 8.9751 14.4269 9.36475 14.1919 9.84717V17H12.4756V6.96191H14.0991ZM31.4385 12.0923C31.4385 13.62 31.089 14.8507 30.3901 15.7847C29.6912 16.7186 28.745 17.1855 27.5513 17.1855C26.3328 17.1855 25.3742 16.799 24.6753 16.0259V20.8594H22.959V6.96191H24.5269L24.6104 8.0752C25.3092 7.20931 26.2803 6.77637 27.5234 6.77637C28.7295 6.77637 29.682 7.23096 30.3809 8.14014C31.0859 9.04932 31.4385 10.3141 31.4385 11.9346V12.0923ZM29.7222 11.8975C29.7222 10.7656 29.481 9.87191 28.9985 9.21631C28.5161 8.56071 27.8543 8.23291 27.0132 8.23291C25.9741 8.23291 25.1948 8.69368 24.6753 9.61523V14.4116C25.1886 15.327 25.9741 15.7847 27.0317 15.7847C27.8543 15.7847 28.5068 15.46 28.9893 14.8105C29.4779 14.1549 29.7222 13.1839 29.7222 11.8975ZM39.8252 16.0073C39.1572 16.7928 38.1769 17.1855 36.8843 17.1855C35.8143 17.1855 34.9979 16.8763 34.4351 16.2578C33.8784 15.6331 33.597 14.7116 33.5908 13.4932V6.96191H35.3071V13.4468C35.3071 14.9683 35.9256 15.729 37.1626 15.729C38.4738 15.729 39.3459 15.2404 39.7788 14.2632V6.96191H41.4951V17H39.8623L39.8252 16.0073ZM46.4399 4.53125V6.96191H48.314V8.28857H46.4399V14.5137C46.4399 14.9157 46.5234 15.2188 46.6904 15.4229C46.8574 15.6208 47.1419 15.7197 47.5439 15.7197C47.7419 15.7197 48.014 15.6826 48.3604 15.6084V17C47.9089 17.1237 47.4697 17.1855 47.043 17.1855C46.276 17.1855 45.6978 16.9536 45.3081 16.4897C44.9185 16.0259 44.7236 15.3672 44.7236 14.5137V8.28857H42.896V6.96191H44.7236V4.53125H46.4399ZM56.9048 17H55.1885V2.75H56.9048V17ZM65.8574 17C65.7585 16.8021 65.6781 16.4495 65.6162 15.9424C64.8184 16.7712 63.8659 17.1855 62.7588 17.1855C61.7692 17.1855 60.9559 16.9072 60.3188 16.3506C59.688 15.7878 59.3726 15.0765 59.3726 14.2168C59.3726 13.1715 59.7684 12.3613 60.5601 11.7861C61.3579 11.2048 62.4774 10.9141 63.9185 10.9141H65.5884V10.1255C65.5884 9.52555 65.409 9.04932 65.0503 8.69678C64.6916 8.33805 64.1628 8.15869 63.4639 8.15869C62.8516 8.15869 62.3382 8.31331 61.9238 8.62256C61.5094 8.9318 61.3022 9.30599 61.3022 9.74512H59.5767C59.5767 9.24414 59.7529 8.76172 60.1055 8.29785C60.4642 7.8278 60.9466 7.45671 61.5527 7.18457C62.165 6.91243 62.8361 6.77637 63.5659 6.77637C64.7225 6.77637 65.6286 7.06706 66.2842 7.64844C66.9398 8.22363 67.2799 9.01839 67.3047 10.0327V14.6528C67.3047 15.5744 67.4222 16.3073 67.6572 16.8516V17H65.8574ZM63.0093 15.6919C63.5474 15.6919 64.0576 15.5527 64.54 15.2744C65.0225 14.9961 65.3719 14.6343 65.5884 14.189V12.1294H64.2432C62.1403 12.1294 61.0889 12.7448 61.0889 13.9756C61.0889 14.5137 61.2682 14.9342 61.627 15.2373C61.9857 15.5404 62.4465 15.6919 63.0093 15.6919ZM73.1309 14.4858L75.4688 6.96191H77.3057L73.27 18.5493C72.6453 20.2192 71.6527 21.0542 70.292 21.0542L69.9673 21.0264L69.3271 20.9058V19.5142L69.791 19.5513C70.3724 19.5513 70.8239 19.4338 71.1455 19.1987C71.4733 18.9637 71.7424 18.5339 71.9526 17.9092L72.333 16.8887L68.752 6.96191H70.626L73.1309 14.4858ZM82.8813 17.1855C81.5207 17.1855 80.4136 16.7402 79.5601 15.8496C78.7065 14.9528 78.2798 13.756 78.2798 12.2593V11.9438C78.2798 10.9481 78.4684 10.0605 78.8457 9.28125C79.2292 8.49577 79.7611 7.88346 80.4414 7.44434C81.1279 6.99902 81.8701 6.77637 82.668 6.77637C83.973 6.77637 84.9873 7.20622 85.7109 8.06592C86.4346 8.92562 86.7964 10.1564 86.7964 11.7583V12.4727H79.9961C80.0208 13.4622 80.3084 14.2632 80.8589 14.8755C81.4155 15.4816 82.1206 15.7847 82.9741 15.7847C83.5802 15.7847 84.0936 15.661 84.5142 15.4136C84.9347 15.1662 85.3027 14.8384 85.6182 14.4302L86.6665 15.2466C85.8254 16.5392 84.5636 17.1855 82.8813 17.1855ZM82.668 8.18652C81.9753 8.18652 81.3939 8.4401 80.9238 8.94727C80.4538 9.44824 80.1631 10.1533 80.0518 11.0625H85.0801V10.9326C85.0306 10.0605 84.7956 9.38639 84.375 8.91016C83.9544 8.42773 83.3854 8.18652 82.668 8.18652ZM93.6431 8.50195C93.3833 8.45866 93.1019 8.43701 92.7988 8.43701C91.6732 8.43701 90.9093 8.91634 90.5073 9.875V17H88.791V6.96191H90.4609L90.4888 8.12158C91.0516 7.22477 91.8494 6.77637 92.8823 6.77637C93.2163 6.77637 93.4699 6.81966 93.6431 6.90625V8.50195ZM7.23389 33.5171C7.23389 32.1193 7.41943 30.7772 7.79053 29.4907C8.16781 28.2043 8.72754 27.0353 9.46973 25.9839C10.2119 24.9325 10.9819 24.1903 11.7798 23.7573L12.1323 24.8892C11.2293 25.5819 10.4871 26.6395 9.90576 28.062C9.33057 29.4845 9.01514 31.0771 8.95947 32.8398L8.9502 33.6284C8.9502 36.0158 9.38623 38.0877 10.2583 39.8442C10.784 40.8957 11.4087 41.7183 12.1323 42.312L11.7798 43.3604C10.9572 42.9027 10.1717 42.1357 9.42334 41.0596C7.9637 38.9567 7.23389 36.4425 7.23389 33.5171ZM13.3384 33.8882C13.3384 32.9048 13.5301 32.0203 13.9136 31.2349C14.3032 30.4494 14.8413 29.8433 15.5278 29.4165C16.2205 28.9897 17.0091 28.7764 17.8936 28.7764C19.2604 28.7764 20.3644 29.2495 21.2056 30.1958C22.0529 31.1421 22.4766 32.4007 22.4766 33.9717V34.0923C22.4766 35.0695 22.2879 35.9478 21.9106 36.7271C21.5396 37.5002 21.0046 38.1032 20.3057 38.5361C19.613 38.9691 18.8151 39.1855 17.9121 39.1855C16.5514 39.1855 15.4474 38.7124 14.6001 37.7661C13.759 36.8198 13.3384 35.5674 13.3384 34.0088V33.8882ZM15.064 34.0923C15.064 35.2056 15.3206 36.0993 15.834 36.7734C16.3535 37.4476 17.0462 37.7847 17.9121 37.7847C18.7842 37.7847 19.4769 37.4445 19.9902 36.7642C20.5036 36.0776 20.7603 35.119 20.7603 33.8882C20.7603 32.7873 20.4974 31.8966 19.9717 31.2163C19.4521 30.5298 18.7594 30.1865 17.8936 30.1865C17.0462 30.1865 16.3628 30.5236 15.8433 31.1978C15.3237 31.8719 15.064 32.8368 15.064 34.0923ZM31.0581 30.1772C31.8188 29.2433 32.8084 28.7764 34.0269 28.7764C36.1483 28.7764 37.2183 29.9731 37.2368 32.3667V39H35.5205V32.3574C35.5143 31.6338 35.3473 31.0988 35.0195 30.7524C34.6979 30.4061 34.1938 30.2329 33.5073 30.2329C32.9507 30.2329 32.4621 30.3813 32.0415 30.6782C31.6209 30.9751 31.2931 31.3647 31.0581 31.8472V39H29.3418V24.75H31.0581V30.1772ZM41.6714 39H39.9551V28.9619H41.6714V39ZM39.8159 26.2993C39.8159 26.021 39.8994 25.786 40.0664 25.5942C40.2396 25.4025 40.4932 25.3066 40.8271 25.3066C41.1611 25.3066 41.4147 25.4025 41.5879 25.5942C41.7611 25.786 41.8477 26.021 41.8477 26.2993C41.8477 26.5776 41.7611 26.8096 41.5879 26.9951C41.4147 27.1807 41.1611 27.2734 40.8271 27.2734C40.4932 27.2734 40.2396 27.1807 40.0664 26.9951C39.8994 26.8096 39.8159 26.5776 39.8159 26.2993ZM44.0093 33.8975C44.0093 32.3574 44.3742 31.1204 45.104 30.1865C45.8338 29.2464 46.7894 28.7764 47.9707 28.7764C49.1458 28.7764 50.0767 29.1784 50.7632 29.9824V24.75H52.4795V39H50.9023L50.8188 37.9238C50.1323 38.765 49.1768 39.1855 47.9521 39.1855C46.7894 39.1855 45.84 38.7093 45.104 37.7568C44.3742 36.8044 44.0093 35.5612 44.0093 34.0273V33.8975ZM45.7256 34.0923C45.7256 35.2303 45.9606 36.1209 46.4307 36.7642C46.9007 37.4074 47.5501 37.729 48.3789 37.729C49.4674 37.729 50.2622 37.2404 50.7632 36.2632V31.6523C50.2498 30.7061 49.4613 30.2329 48.3975 30.2329C47.5563 30.2329 46.9007 30.5576 46.4307 31.207C45.9606 31.8564 45.7256 32.8182 45.7256 34.0923ZM54.7339 33.8975C54.7339 32.3574 55.0988 31.1204 55.8286 30.1865C56.5584 29.2464 57.514 28.7764 58.6953 28.7764C59.8704 28.7764 60.8013 29.1784 61.4878 29.9824V24.75H63.2041V39H61.627L61.5435 37.9238C60.8569 38.765 59.9014 39.1855 58.6768 39.1855C57.514 39.1855 56.5646 38.7093 55.8286 37.7568C55.0988 36.8044 54.7339 35.5612 54.7339 34.0273V33.8975ZM56.4502 34.0923C56.4502 35.2303 56.6852 36.1209 57.1553 36.7642C57.6253 37.4074 58.2747 37.729 59.1035 37.729C60.1921 37.729 60.9868 37.2404 61.4878 36.2632V31.6523C60.9744 30.7061 60.1859 30.2329 59.1221 30.2329C58.2809 30.2329 57.6253 30.5576 57.1553 31.207C56.6852 31.8564 56.4502 32.8182 56.4502 34.0923ZM70.0415 39.1855C68.6808 39.1855 67.5737 38.7402 66.7202 37.8496C65.8667 36.9528 65.4399 35.756 65.4399 34.2593V33.9438C65.4399 32.9481 65.6286 32.0605 66.0059 31.2812C66.3893 30.4958 66.9212 29.8835 67.6016 29.4443C68.2881 28.999 69.0303 28.7764 69.8281 28.7764C71.1331 28.7764 72.1475 29.2062 72.8711 30.0659C73.5947 30.9256 73.9565 32.1564 73.9565 33.7583V34.4727H67.1562C67.181 35.4622 67.4686 36.2632 68.019 36.8755C68.5757 37.4816 69.2808 37.7847 70.1343 37.7847C70.7404 37.7847 71.2537 37.661 71.6743 37.4136C72.0949 37.1662 72.4629 36.8384 72.7783 36.4302L73.8267 37.2466C72.9855 38.5392 71.7238 39.1855 70.0415 39.1855ZM69.8281 30.1865C69.1354 30.1865 68.554 30.4401 68.084 30.9473C67.6139 31.4482 67.3232 32.1533 67.2119 33.0625H72.2402V32.9326C72.1908 32.0605 71.9557 31.3864 71.5352 30.9102C71.1146 30.4277 70.5456 30.1865 69.8281 30.1865ZM77.5747 28.9619L77.6304 30.2236C78.3973 29.2588 79.3993 28.7764 80.6362 28.7764C82.7576 28.7764 83.8276 29.9731 83.8462 32.3667V39H82.1299V32.3574C82.1237 31.6338 81.9567 31.0988 81.6289 30.7524C81.3073 30.4061 80.8032 30.2329 80.1167 30.2329C79.5601 30.2329 79.0715 30.3813 78.6509 30.6782C78.2303 30.9751 77.9025 31.3647 77.6675 31.8472V39H75.9512V28.9619H77.5747ZM93.0122 39H91.2959V24.75H93.0122V39ZM101.965 39C101.866 38.8021 101.785 38.4495 101.724 37.9424C100.926 38.7712 99.9733 39.1855 98.8662 39.1855C97.8766 39.1855 97.0633 38.9072 96.4263 38.3506C95.7954 37.7878 95.48 37.0765 95.48 36.2168C95.48 35.1715 95.8758 34.3613 96.6675 33.7861C97.4653 33.2048 98.5848 32.9141 100.026 32.9141H101.696V32.1255C101.696 31.5256 101.516 31.0493 101.158 30.6968C100.799 30.3381 100.27 30.1587 99.5713 30.1587C98.959 30.1587 98.4456 30.3133 98.0312 30.6226C97.6169 30.9318 97.4097 31.306 97.4097 31.7451H95.6841C95.6841 31.2441 95.8604 30.7617 96.2129 30.2979C96.5716 29.8278 97.054 29.4567 97.6602 29.1846C98.2725 28.9124 98.9435 28.7764 99.6733 28.7764C100.83 28.7764 101.736 29.0671 102.392 29.6484C103.047 30.2236 103.387 31.0184 103.412 32.0327V36.6528C103.412 37.5744 103.53 38.3073 103.765 38.8516V39H101.965ZM99.1167 37.6919C99.6548 37.6919 100.165 37.5527 100.647 37.2744C101.13 36.9961 101.479 36.6343 101.696 36.189V34.1294H100.351C98.2477 34.1294 97.1963 34.7448 97.1963 35.9756C97.1963 36.5137 97.3757 36.9342 97.7344 37.2373C98.0931 37.5404 98.5539 37.6919 99.1167 37.6919ZM109.238 36.4858L111.576 28.9619H113.413L109.377 40.5493C108.753 42.2192 107.76 43.0542 106.399 43.0542L106.075 43.0264L105.435 42.9058V41.5142L105.898 41.5513C106.48 41.5513 106.931 41.4338 107.253 41.1987C107.581 40.9637 107.85 40.5339 108.06 39.9092L108.44 38.8887L104.859 28.9619H106.733L109.238 36.4858ZM118.989 39.1855C117.628 39.1855 116.521 38.7402 115.667 37.8496C114.814 36.9528 114.387 35.756 114.387 34.2593V33.9438C114.387 32.9481 114.576 32.0605 114.953 31.2812C115.337 30.4958 115.868 29.8835 116.549 29.4443C117.235 28.999 117.978 28.7764 118.775 28.7764C120.08 28.7764 121.095 29.2062 121.818 30.0659C122.542 30.9256 122.904 32.1564 122.904 33.7583V34.4727H116.104C116.128 35.4622 116.416 36.2632 116.966 36.8755C117.523 37.4816 118.228 37.7847 119.082 37.7847C119.688 37.7847 120.201 37.661 120.622 37.4136C121.042 37.1662 121.41 36.8384 121.726 36.4302L122.774 37.2466C121.933 38.5392 120.671 39.1855 118.989 39.1855ZM118.775 30.1865C118.083 30.1865 117.501 30.4401 117.031 30.9473C116.561 31.4482 116.271 32.1533 116.159 33.0625H121.188V32.9326C121.138 32.0605 120.903 31.3864 120.482 30.9102C120.062 30.4277 119.493 30.1865 118.775 30.1865ZM129.75 30.502C129.491 30.4587 129.209 30.437 128.906 30.437C127.781 30.437 127.017 30.9163 126.615 31.875V39H124.898V28.9619H126.568L126.596 30.1216C127.159 29.2248 127.957 28.7764 128.99 28.7764C129.324 28.7764 129.577 28.8197 129.75 28.9062V30.502ZM135.298 33.6099C135.298 34.9891 135.116 36.3127 134.751 37.5806C134.392 38.8423 133.839 40.0081 133.09 41.0781C132.348 42.1481 131.569 42.9089 130.752 43.3604L130.391 42.312C131.343 41.5822 132.107 40.4504 132.682 38.9165C133.264 37.3765 133.56 35.6694 133.573 33.7954V33.4985C133.573 32.1997 133.437 30.9937 133.165 29.8804C132.892 28.7609 132.512 27.759 132.023 26.8745C131.541 25.9901 130.997 25.3005 130.391 24.8057L130.752 23.7573C131.569 24.2088 132.345 24.9634 133.081 26.021C133.823 27.0786 134.377 28.2445 134.742 29.5186C135.113 30.7926 135.298 32.1564 135.298 33.6099Z" fill="black"/>
<path d="M230.479 34H228.698V20.4922H230.479V34ZM235.34 34H233.624V19.75H235.34V34ZM244.089 19.5737L245.072 20.2417C244.497 21.0272 244.2 21.8745 244.182 22.7837V24.0454H242.475V22.9692C242.475 22.3384 242.623 21.7137 242.92 21.0952C243.223 20.4767 243.613 19.9696 244.089 19.5737ZM247.011 19.5737L247.995 20.2417C247.419 21.0272 247.123 21.8745 247.104 22.7837V24.0454H245.397V22.9692C245.397 22.3384 245.545 21.7137 245.842 21.0952C246.145 20.4767 246.535 19.9696 247.011 19.5737ZM260.176 34H258.385L251.585 23.5908V34H249.794V20.4922H251.585L258.404 30.9478V20.4922H260.176V34ZM262.616 28.8882C262.616 27.9048 262.807 27.0203 263.191 26.2349C263.581 25.4494 264.119 24.8433 264.805 24.4165C265.498 23.9897 266.286 23.7764 267.171 23.7764C268.538 23.7764 269.642 24.2495 270.483 25.1958C271.33 26.1421 271.754 27.4007 271.754 28.9717V29.0923C271.754 30.0695 271.565 30.9478 271.188 31.7271C270.817 32.5002 270.282 33.1032 269.583 33.5361C268.89 33.9691 268.092 34.1855 267.189 34.1855C265.829 34.1855 264.725 33.7124 263.877 32.7661C263.036 31.8198 262.616 30.5674 262.616 29.0088V28.8882ZM264.341 29.0923C264.341 30.2056 264.598 31.0993 265.111 31.7734C265.631 32.4476 266.324 32.7847 267.189 32.7847C268.062 32.7847 268.754 32.4445 269.268 31.7642C269.781 31.0776 270.038 30.119 270.038 28.8882C270.038 27.7873 269.775 26.8966 269.249 26.2163C268.729 25.5298 268.037 25.1865 267.171 25.1865C266.324 25.1865 265.64 25.5236 265.121 26.1978C264.601 26.8719 264.341 27.8368 264.341 29.0923ZM279.751 31.3374C279.751 30.8735 279.575 30.5148 279.222 30.2612C278.876 30.0015 278.267 29.7788 277.395 29.5933C276.529 29.4077 275.839 29.1851 275.326 28.9253C274.819 28.6655 274.441 28.3563 274.194 27.9976C273.953 27.6388 273.832 27.2121 273.832 26.7173C273.832 25.8947 274.178 25.1989 274.871 24.6299C275.57 24.0609 276.461 23.7764 277.543 23.7764C278.681 23.7764 279.603 24.0701 280.308 24.6577C281.019 25.2453 281.375 25.9967 281.375 26.9121H279.649C279.649 26.4421 279.448 26.0369 279.046 25.6968C278.65 25.3566 278.149 25.1865 277.543 25.1865C276.918 25.1865 276.43 25.3226 276.077 25.5947C275.725 25.8669 275.548 26.2225 275.548 26.6616C275.548 27.076 275.712 27.3883 276.04 27.5986C276.368 27.8089 276.958 28.0099 277.812 28.2017C278.672 28.3934 279.368 28.6222 279.899 28.8882C280.431 29.1541 280.824 29.4757 281.078 29.853C281.337 30.2241 281.467 30.6787 281.467 31.2168C281.467 32.1136 281.109 32.8341 280.391 33.3784C279.674 33.9165 278.743 34.1855 277.599 34.1855C276.795 34.1855 276.083 34.0433 275.465 33.7588C274.846 33.4743 274.361 33.0785 274.008 32.5713C273.662 32.0579 273.489 31.5044 273.489 30.9106H275.205C275.236 31.4858 275.465 31.9435 275.892 32.2837C276.325 32.6177 276.894 32.7847 277.599 32.7847C278.248 32.7847 278.768 32.6548 279.157 32.395C279.553 32.1291 279.751 31.7765 279.751 31.3374ZM286.032 21.5312V23.9619H287.906V25.2886H286.032V31.5137C286.032 31.9157 286.115 32.2188 286.282 32.4229C286.449 32.6208 286.734 32.7197 287.136 32.7197C287.334 32.7197 287.606 32.6826 287.952 32.6084V34C287.501 34.1237 287.062 34.1855 286.635 34.1855C285.868 34.1855 285.29 33.9536 284.9 33.4897C284.51 33.0259 284.315 32.3672 284.315 31.5137V25.2886H282.488V23.9619H284.315V21.5312H286.032ZM294.771 25.502C294.511 25.4587 294.23 25.437 293.927 25.437C292.801 25.437 292.037 25.9163 291.635 26.875V34H289.919V23.9619H291.589L291.617 25.1216C292.18 24.2248 292.977 23.7764 294.01 23.7764C294.344 23.7764 294.598 23.8197 294.771 23.9062V25.502ZM295.717 28.8882C295.717 27.9048 295.909 27.0203 296.292 26.2349C296.682 25.4494 297.22 24.8433 297.907 24.4165C298.599 23.9897 299.388 23.7764 300.272 23.7764C301.639 23.7764 302.743 24.2495 303.584 25.1958C304.432 26.1421 304.855 27.4007 304.855 28.9717V29.0923C304.855 30.0695 304.667 30.9478 304.29 31.7271C303.918 32.5002 303.383 33.1032 302.685 33.5361C301.992 33.9691 301.194 34.1855 300.291 34.1855C298.93 34.1855 297.826 33.7124 296.979 32.7661C296.138 31.8198 295.717 30.5674 295.717 29.0088V28.8882ZM297.443 29.0923C297.443 30.2056 297.7 31.0993 298.213 31.7734C298.732 32.4476 299.425 32.7847 300.291 32.7847C301.163 32.7847 301.856 32.4445 302.369 31.7642C302.882 31.0776 303.139 30.119 303.139 28.8882C303.139 27.7873 302.876 26.8966 302.351 26.2163C301.831 25.5298 301.138 25.1865 300.272 25.1865C299.425 25.1865 298.742 25.5236 298.222 26.1978C297.703 26.8719 297.443 27.8368 297.443 29.0923ZM313.344 23.9619L313.4 25.2236C314.167 24.2588 315.169 23.7764 316.406 23.7764C318.527 23.7764 319.597 24.9731 319.616 27.3667V34H317.899V27.3574C317.893 26.6338 317.726 26.0988 317.398 25.7524C317.077 25.4061 316.573 25.2329 315.886 25.2329C315.33 25.2329 314.841 25.3813 314.42 25.6782C314 25.9751 313.672 26.3647 313.437 26.8472V34H311.721V23.9619H313.344ZM326.37 34.1855C325.009 34.1855 323.902 33.7402 323.048 32.8496C322.195 31.9528 321.768 30.756 321.768 29.2593V28.9438C321.768 27.9481 321.957 27.0605 322.334 26.2812C322.717 25.4958 323.249 24.8835 323.93 24.4443C324.616 23.999 325.358 23.7764 326.156 23.7764C327.461 23.7764 328.476 24.2062 329.199 25.0659C329.923 25.9256 330.285 27.1564 330.285 28.7583V29.4727H323.484C323.509 30.4622 323.797 31.2632 324.347 31.8755C324.904 32.4816 325.609 32.7847 326.462 32.7847C327.069 32.7847 327.582 32.661 328.002 32.4136C328.423 32.1662 328.791 31.8384 329.106 31.4302L330.155 32.2466C329.314 33.5392 328.052 34.1855 326.37 34.1855ZM326.156 25.1865C325.464 25.1865 324.882 25.4401 324.412 25.9473C323.942 26.4482 323.651 27.1533 323.54 28.0625H328.568V27.9326C328.519 27.0605 328.284 26.3864 327.863 25.9102C327.443 25.4277 326.874 25.1865 326.156 25.1865ZM338.477 33.0073C337.809 33.7928 336.828 34.1855 335.536 34.1855C334.466 34.1855 333.649 33.8763 333.086 33.2578C332.53 32.6331 332.248 31.7116 332.242 30.4932V23.9619H333.958V30.4468C333.958 31.9683 334.577 32.729 335.814 32.729C337.125 32.729 337.997 32.2404 338.43 31.2632V23.9619H340.146V34H338.514L338.477 33.0073ZM347.615 25.502C347.355 25.4587 347.074 25.437 346.771 25.437C345.645 25.437 344.881 25.9163 344.479 26.875V34H342.763V23.9619H344.433L344.46 25.1216C345.023 24.2248 345.821 23.7764 346.854 23.7764C347.188 23.7764 347.442 23.8197 347.615 23.9062V25.502ZM348.561 28.8882C348.561 27.9048 348.753 27.0203 349.136 26.2349C349.526 25.4494 350.064 24.8433 350.75 24.4165C351.443 23.9897 352.232 23.7764 353.116 23.7764C354.483 23.7764 355.587 24.2495 356.428 25.1958C357.276 26.1421 357.699 27.4007 357.699 28.9717V29.0923C357.699 30.0695 357.511 30.9478 357.133 31.7271C356.762 32.5002 356.227 33.1032 355.528 33.5361C354.836 33.9691 354.038 34.1855 353.135 34.1855C351.774 34.1855 350.67 33.7124 349.823 32.7661C348.982 31.8198 348.561 30.5674 348.561 29.0088V28.8882ZM350.287 29.0923C350.287 30.2056 350.543 31.0993 351.057 31.7734C351.576 32.4476 352.269 32.7847 353.135 32.7847C354.007 32.7847 354.7 32.4445 355.213 31.7642C355.726 31.0776 355.983 30.119 355.983 28.8882C355.983 27.7873 355.72 26.8966 355.194 26.2163C354.675 25.5298 353.982 25.1865 353.116 25.1865C352.269 25.1865 351.585 25.5236 351.066 26.1978C350.546 26.8719 350.287 27.8368 350.287 29.0923ZM361.475 23.9619L361.531 25.2236C362.298 24.2588 363.3 23.7764 364.537 23.7764C366.658 23.7764 367.728 24.9731 367.747 27.3667V34H366.03V27.3574C366.024 26.6338 365.857 26.0988 365.529 25.7524C365.208 25.4061 364.704 25.2329 364.017 25.2329C363.46 25.2329 362.972 25.3813 362.551 25.6782C362.131 25.9751 361.803 26.3647 361.568 26.8472V34H359.852V23.9619H361.475ZM374.5 34.1855C373.14 34.1855 372.033 33.7402 371.179 32.8496C370.326 31.9528 369.899 30.756 369.899 29.2593V28.9438C369.899 27.9481 370.088 27.0605 370.465 26.2812C370.848 25.4958 371.38 24.8835 372.061 24.4443C372.747 23.999 373.489 23.7764 374.287 23.7764C375.592 23.7764 376.606 24.2062 377.33 25.0659C378.054 25.9256 378.416 27.1564 378.416 28.7583V29.4727H371.615C371.64 30.4622 371.928 31.2632 372.478 31.8755C373.035 32.4816 373.74 32.7847 374.593 32.7847C375.199 32.7847 375.713 32.661 376.133 32.4136C376.554 32.1662 376.922 31.8384 377.237 31.4302L378.286 32.2466C377.444 33.5392 376.183 34.1855 374.5 34.1855ZM374.287 25.1865C373.594 25.1865 373.013 25.4401 372.543 25.9473C372.073 26.4482 371.782 27.1533 371.671 28.0625H376.699V27.9326C376.65 27.0605 376.415 26.3864 375.994 25.9102C375.574 25.4277 375.005 25.1865 374.287 25.1865ZM380.512 24.2959L379.538 23.6279C380.113 22.8239 380.41 21.9766 380.429 21.0859V19.75H382.126V20.9561C382.12 21.5745 381.966 22.193 381.663 22.8115C381.366 23.4238 380.982 23.9186 380.512 24.2959ZM383.36 24.2959L382.386 23.6279C382.961 22.8239 383.258 21.9766 383.277 21.0859V19.75H384.975V20.9561C384.968 21.5745 384.814 22.193 384.511 22.8115C384.214 23.4238 383.83 23.9186 383.36 24.2959Z" fill="black"/>
<path d="M54.7632 102H53.0376V90.561L49.5771 91.832V90.2734L54.4941 88.4272H54.7632V102ZM60.0049 101.1C60.0049 100.803 60.0915 100.556 60.2646 100.358C60.444 100.16 60.71 100.061 61.0625 100.061C61.415 100.061 61.681 100.16 61.8604 100.358C62.0459 100.556 62.1387 100.803 62.1387 101.1C62.1387 101.385 62.0459 101.623 61.8604 101.814C61.681 102.006 61.415 102.102 61.0625 102.102C60.71 102.102 60.444 102.006 60.2646 101.814C60.0915 101.623 60.0049 101.385 60.0049 101.1ZM73.6519 102H64.8013V100.766L69.4771 95.5708C70.1698 94.7853 70.646 94.1483 70.9058 93.6597C71.1717 93.1649 71.3047 92.6546 71.3047 92.1289C71.3047 91.4238 71.0913 90.8455 70.6646 90.394C70.2378 89.9425 69.6688 89.7168 68.9575 89.7168C68.104 89.7168 67.4391 89.9611 66.9629 90.4497C66.4928 90.9321 66.2578 91.6063 66.2578 92.4722H64.5415C64.5415 91.229 64.9404 90.224 65.7383 89.457C66.5423 88.6901 67.6154 88.3066 68.9575 88.3066C70.2131 88.3066 71.2057 88.6375 71.9355 89.2993C72.6654 89.9549 73.0303 90.8301 73.0303 91.9248C73.0303 93.2546 72.1829 94.8379 70.4883 96.6748L66.8701 100.599H73.6519V102Z" fill="black"/>
<path d="M55.9014 235.228L56.5879 228.492H63.5088V230.079H58.0444L57.6362 233.762C58.298 233.372 59.0495 233.177 59.8906 233.177C61.1214 233.177 62.0986 233.585 62.8223 234.402C63.5459 235.212 63.9077 236.31 63.9077 237.695C63.9077 239.087 63.5304 240.185 62.7759 240.989C62.0275 241.787 60.9792 242.186 59.6309 242.186C58.4372 242.186 57.4631 241.855 56.7085 241.193C55.9539 240.531 55.5241 239.616 55.4189 238.447H57.0425C57.1476 239.22 57.4229 239.804 57.8682 240.2C58.3135 240.59 58.901 240.785 59.6309 240.785C60.4287 240.785 61.0534 240.513 61.5049 239.968C61.9626 239.424 62.1914 238.673 62.1914 237.714C62.1914 236.811 61.944 236.087 61.4492 235.543C60.9606 234.993 60.3081 234.717 59.4917 234.717C58.7433 234.717 58.1558 234.881 57.729 235.209L57.2744 235.58L55.9014 235.228ZM65.9951 241.1C65.9951 240.803 66.0817 240.556 66.2549 240.358C66.4342 240.16 66.7002 240.061 67.0527 240.061C67.4053 240.061 67.6712 240.16 67.8506 240.358C68.0361 240.556 68.1289 240.803 68.1289 241.1C68.1289 241.385 68.0361 241.623 67.8506 241.814C67.6712 242.006 67.4053 242.102 67.0527 242.102C66.7002 242.102 66.4342 242.006 66.2549 241.814C66.0817 241.623 65.9951 241.385 65.9951 241.1ZM76.4321 242H74.7065V230.561L71.2461 231.832V230.273L76.1631 228.427H76.4321V242Z" fill="black"/>
<path d="M280.913 231.962L280.968 233.224C281.735 232.259 282.737 231.776 283.974 231.776C286.096 231.776 287.166 232.973 287.184 235.367V242H285.468V235.357C285.462 234.634 285.295 234.099 284.967 233.752C284.645 233.406 284.141 233.233 283.455 233.233C282.898 233.233 282.409 233.381 281.989 233.678C281.568 233.975 281.24 234.365 281.005 234.847V242H279.289V231.962H280.913ZM291.396 231.962L291.452 233.224C292.219 232.259 293.221 231.776 294.458 231.776C296.579 231.776 297.649 232.973 297.667 235.367V242H295.951V235.357C295.945 234.634 295.778 234.099 295.45 233.752C295.129 233.406 294.625 233.233 293.938 233.233C293.381 233.233 292.893 233.381 292.472 233.678C292.052 233.975 291.724 234.365 291.489 234.847V242H289.772V231.962H291.396Z" fill="black"/>
<path d="M63.9634 382H55.1128V380.766L59.7886 375.571C60.4813 374.785 60.9575 374.148 61.2173 373.66C61.4832 373.165 61.6162 372.655 61.6162 372.129C61.6162 371.424 61.4028 370.846 60.9761 370.394C60.5493 369.943 59.9803 369.717 59.269 369.717C58.4155 369.717 57.7507 369.961 57.2744 370.45C56.8044 370.932 56.5693 371.606 56.5693 372.472H54.853C54.853 371.229 55.252 370.224 56.0498 369.457C56.8538 368.69 57.9269 368.307 59.269 368.307C60.5246 368.307 61.5173 368.638 62.2471 369.299C62.9769 369.955 63.3418 370.83 63.3418 371.925C63.3418 373.255 62.4945 374.838 60.7998 376.675L57.1816 380.599H63.9634V382ZM65.9951 381.1C65.9951 380.803 66.0817 380.556 66.2549 380.358C66.4342 380.16 66.7002 380.061 67.0527 380.061C67.4053 380.061 67.6712 380.16 67.8506 380.358C68.0361 380.556 68.1289 380.803 68.1289 381.1C68.1289 381.385 68.0361 381.623 67.8506 381.814C67.6712 382.006 67.4053 382.102 67.0527 382.102C66.7002 382.102 66.4342 382.006 66.2549 381.814C66.0817 381.623 65.9951 381.385 65.9951 381.1ZM76.4321 382H74.7065V370.561L71.2461 371.832V370.273L76.1631 368.427H76.4321V382Z" fill="black"/>
<path d="M162.74 120.532C161.839 121.766 160.831 122.554 159.716 122.896C158.6 123.238 157.561 123.057 156.597 122.353C155.613 121.634 155.067 120.756 154.959 119.72L152.108 123.623L150.722 122.611L158.919 111.388L160.185 112.313L159.596 113.261C160.671 112.974 161.71 113.197 162.714 113.93C163.688 114.642 164.189 115.571 164.217 116.717C164.25 117.867 163.789 119.096 162.833 120.405L162.74 120.532ZM161.469 119.363C162.137 118.449 162.469 117.585 162.466 116.771C162.463 115.957 162.122 115.302 161.443 114.806C160.604 114.193 159.703 114.105 158.74 114.543L155.911 118.416C155.785 119.458 156.15 120.291 157.004 120.915C157.668 121.4 158.386 121.523 159.159 121.283C159.94 121.042 160.71 120.402 161.469 119.363ZM164.868 128.394C163.769 127.591 163.138 126.579 162.974 125.356C162.813 124.128 163.175 122.91 164.058 121.701L164.244 121.447C164.831 120.643 165.507 120.037 166.271 119.63C167.044 119.222 167.835 119.042 168.643 119.088C169.46 119.134 170.191 119.392 170.835 119.862C171.889 120.632 172.455 121.577 172.532 122.698C172.609 123.819 172.175 125.027 171.23 126.32L170.809 126.897L165.318 122.886C164.754 123.7 164.514 124.516 164.597 125.335C164.689 126.153 165.08 126.814 165.769 127.317C166.258 127.675 166.746 127.878 167.231 127.926C167.717 127.974 168.208 127.927 168.703 127.783L169.068 129.061C167.626 129.608 166.226 129.386 164.868 128.394ZM170.003 121.001C169.444 120.592 168.825 120.454 168.146 120.587C167.471 120.714 166.821 121.112 166.194 121.78L170.255 124.746L170.331 124.641C170.806 123.908 171.014 123.225 170.955 122.592C170.9 121.955 170.583 121.424 170.003 121.001ZM176.04 133.027C176.313 132.652 176.383 132.259 176.247 131.846C176.121 131.432 175.76 130.893 175.166 130.229C174.576 129.568 174.15 128.981 173.889 128.469C173.633 127.96 173.51 127.488 173.522 127.052C173.539 126.62 173.693 126.204 173.985 125.805C174.47 125.141 175.16 124.783 176.055 124.732C176.955 124.685 177.842 124.98 178.716 125.619C179.635 126.29 180.206 127.071 180.429 127.961C180.657 128.855 180.501 129.672 179.961 130.411L178.567 129.393C178.845 129.014 178.921 128.568 178.797 128.056C178.678 127.548 178.374 127.115 177.885 126.758C177.38 126.389 176.905 126.211 176.46 126.223C176.015 126.234 175.663 126.418 175.404 126.772C175.159 127.107 175.108 127.456 175.248 127.819C175.389 128.182 175.747 128.693 176.323 129.351C176.905 130.013 177.332 130.608 177.604 131.137C177.877 131.665 178.004 132.157 177.987 132.611C177.977 133.064 177.814 133.507 177.497 133.942C176.968 134.666 176.253 135.036 175.353 135.053C174.456 135.064 173.546 134.732 172.622 134.057C171.972 133.583 171.482 133.049 171.15 132.454C170.819 131.86 170.66 131.254 170.675 130.636C170.698 130.017 170.884 129.468 171.234 128.989L172.62 130.001C172.306 130.484 172.221 130.988 172.365 131.515C172.518 132.04 172.879 132.51 173.448 132.926C173.972 133.309 174.468 133.511 174.936 133.531C175.413 133.549 175.781 133.382 176.04 133.027ZM180.309 133.112C180.889 132.318 181.565 131.717 182.338 131.309C183.116 130.904 183.908 130.732 184.714 130.793C185.525 130.857 186.288 131.149 187.002 131.671C188.106 132.477 188.718 133.51 188.839 134.771C188.966 136.035 188.565 137.301 187.639 138.57L187.568 138.667C186.991 139.456 186.321 140.054 185.556 140.461C184.801 140.866 184.013 141.038 183.193 140.975C182.379 140.916 181.607 140.62 180.877 140.088C179.779 139.285 179.166 138.252 179.04 136.988C178.919 135.728 179.318 134.468 180.238 133.21L180.309 133.112ZM181.582 134.295C180.925 135.194 180.605 136.067 180.622 136.914C180.644 137.765 181.005 138.446 181.704 138.956C182.408 139.471 183.168 139.605 183.984 139.358C184.803 139.106 185.576 138.484 186.302 137.49C186.951 136.601 187.264 135.727 187.241 134.867C187.227 134.006 186.87 133.32 186.17 132.81C185.486 132.31 184.735 132.179 183.918 132.417C183.101 132.655 182.322 133.281 181.582 134.295ZM196.566 141.919L197.607 142.68C198.269 143.148 198.909 143.351 199.528 143.29C200.147 143.229 200.664 142.914 201.08 142.345C202.014 141.066 201.844 139.962 200.571 139.031C199.971 138.594 199.366 138.416 198.755 138.498C198.152 138.578 197.645 138.901 197.232 139.465L195.846 138.453C196.478 137.589 197.316 137.102 198.361 136.992C199.415 136.881 200.429 137.181 201.403 137.893C202.431 138.644 203.039 139.505 203.226 140.477C203.413 141.448 203.152 142.418 202.444 143.387C202.098 143.861 201.607 144.208 200.973 144.426C200.344 144.648 199.684 144.676 198.994 144.509C199.455 145.136 199.687 145.788 199.691 146.465C199.699 147.145 199.472 147.803 199.009 148.437C198.294 149.416 197.407 149.959 196.348 150.066C195.289 150.174 194.248 149.853 193.224 149.106C192.2 148.358 191.568 147.471 191.329 146.446C191.095 145.425 191.309 144.46 191.973 143.551L193.367 144.569C192.947 145.143 192.799 145.739 192.922 146.358C193.045 146.976 193.421 147.515 194.05 147.974C194.719 148.463 195.359 148.662 195.969 148.572C196.579 148.481 197.123 148.109 197.601 147.454C198.064 146.82 198.225 146.191 198.083 145.567C197.942 144.943 197.508 144.357 196.781 143.811L195.739 143.05L196.566 141.919ZM199.393 152.268C199.568 152.028 199.784 151.879 200.04 151.821C200.302 151.767 200.575 151.844 200.86 152.052C201.144 152.26 201.301 152.497 201.329 152.763C201.362 153.032 201.291 153.286 201.116 153.526C200.948 153.756 200.733 153.893 200.47 153.939C200.212 153.988 199.941 153.908 199.656 153.7C199.371 153.492 199.213 153.258 199.181 152.998C199.155 152.741 199.225 152.497 199.393 152.268ZM207.29 159.15L205.897 158.133L212.644 148.895L209.1 147.881L210.019 146.622L215.079 148.031L215.296 148.19L207.29 159.15Z" fill="black"/>
<path d="M146.778 225.092C146.778 226.62 146.429 227.851 145.73 228.785C145.031 229.719 144.085 230.186 142.891 230.186C141.673 230.186 140.714 229.799 140.015 229.026V233.859H138.299V219.962H139.867L139.95 221.075C140.649 220.209 141.62 219.776 142.863 219.776C144.069 219.776 145.022 220.231 145.721 221.14C146.426 222.049 146.778 223.314 146.778 224.935V225.092ZM145.062 224.897C145.062 223.766 144.821 222.872 144.338 222.216C143.856 221.561 143.194 221.233 142.353 221.233C141.314 221.233 140.535 221.694 140.015 222.615V227.412C140.528 228.327 141.314 228.785 142.372 228.785C143.194 228.785 143.847 228.46 144.329 227.811C144.818 227.155 145.062 226.184 145.062 224.897ZM153.133 230.186C151.773 230.186 150.666 229.74 149.812 228.85C148.958 227.953 148.532 226.756 148.532 225.259V224.944C148.532 223.948 148.72 223.061 149.098 222.281C149.481 221.496 150.013 220.883 150.693 220.444C151.38 219.999 152.122 219.776 152.92 219.776C154.225 219.776 155.239 220.206 155.963 221.066C156.687 221.926 157.048 223.156 157.048 224.758V225.473H150.248C150.273 226.462 150.56 227.263 151.111 227.875C151.667 228.482 152.373 228.785 153.226 228.785C153.832 228.785 154.346 228.661 154.766 228.414C155.187 228.166 155.555 227.838 155.87 227.43L156.918 228.247C156.077 229.539 154.816 230.186 153.133 230.186ZM152.92 221.187C152.227 221.187 151.646 221.44 151.176 221.947C150.706 222.448 150.415 223.153 150.304 224.062H155.332V223.933C155.283 223.061 155.048 222.386 154.627 221.91C154.206 221.428 153.637 221.187 152.92 221.187ZM164.888 227.337C164.888 226.874 164.711 226.515 164.359 226.261C164.013 226.001 163.403 225.779 162.531 225.593C161.665 225.408 160.976 225.185 160.462 224.925C159.955 224.666 159.578 224.356 159.331 223.998C159.089 223.639 158.969 223.212 158.969 222.717C158.969 221.895 159.315 221.199 160.008 220.63C160.707 220.061 161.597 219.776 162.68 219.776C163.818 219.776 164.739 220.07 165.444 220.658C166.156 221.245 166.511 221.997 166.511 222.912H164.786C164.786 222.442 164.585 222.037 164.183 221.697C163.787 221.357 163.286 221.187 162.68 221.187C162.055 221.187 161.566 221.323 161.214 221.595C160.861 221.867 160.685 222.222 160.685 222.662C160.685 223.076 160.849 223.388 161.177 223.599C161.505 223.809 162.095 224.01 162.949 224.202C163.808 224.393 164.504 224.622 165.036 224.888C165.568 225.154 165.961 225.476 166.214 225.853C166.474 226.224 166.604 226.679 166.604 227.217C166.604 228.114 166.245 228.834 165.528 229.378C164.81 229.917 163.88 230.186 162.735 230.186C161.931 230.186 161.22 230.043 160.602 229.759C159.983 229.474 159.498 229.078 159.145 228.571C158.799 228.058 158.625 227.504 158.625 226.911H160.342C160.373 227.486 160.602 227.944 161.028 228.284C161.461 228.618 162.03 228.785 162.735 228.785C163.385 228.785 163.904 228.655 164.294 228.395C164.69 228.129 164.888 227.777 164.888 227.337ZM168.385 224.888C168.385 223.905 168.577 223.02 168.96 222.235C169.35 221.449 169.888 220.843 170.575 220.417C171.267 219.99 172.056 219.776 172.94 219.776C174.307 219.776 175.411 220.25 176.252 221.196C177.1 222.142 177.523 223.401 177.523 224.972V225.092C177.523 226.069 177.335 226.948 176.958 227.727C176.586 228.5 176.051 229.103 175.353 229.536C174.66 229.969 173.862 230.186 172.959 230.186C171.598 230.186 170.494 229.712 169.647 228.766C168.806 227.82 168.385 226.567 168.385 225.009V224.888ZM170.111 225.092C170.111 226.206 170.368 227.099 170.881 227.773C171.4 228.448 172.093 228.785 172.959 228.785C173.831 228.785 174.524 228.444 175.037 227.764C175.55 227.078 175.807 226.119 175.807 224.888C175.807 223.787 175.544 222.897 175.019 222.216C174.499 221.53 173.806 221.187 172.94 221.187C172.093 221.187 171.41 221.524 170.89 222.198C170.371 222.872 170.111 223.837 170.111 225.092ZM193.063 230H184.212V228.766L188.888 223.571C189.581 222.785 190.057 222.148 190.317 221.66C190.583 221.165 190.716 220.655 190.716 220.129C190.716 219.424 190.502 218.846 190.076 218.394C189.649 217.943 189.08 217.717 188.369 217.717C187.515 217.717 186.85 217.961 186.374 218.45C185.904 218.932 185.669 219.606 185.669 220.472H183.953C183.953 219.229 184.352 218.224 185.149 217.457C185.953 216.69 187.027 216.307 188.369 216.307C189.624 216.307 190.617 216.638 191.347 217.299C192.076 217.955 192.441 218.83 192.441 219.925C192.441 221.255 191.594 222.838 189.899 224.675L186.281 228.599H193.063V230ZM195.095 229.1C195.095 228.803 195.181 228.556 195.354 228.358C195.534 228.16 195.8 228.061 196.152 228.061C196.505 228.061 196.771 228.16 196.95 228.358C197.136 228.556 197.229 228.803 197.229 229.1C197.229 229.385 197.136 229.623 196.95 229.814C196.771 230.006 196.505 230.102 196.152 230.102C195.8 230.102 195.534 230.006 195.354 229.814C195.181 229.623 195.095 229.385 195.095 229.1ZM205.532 230H203.806V218.561L200.346 219.832V218.273L205.263 216.427H205.532V230Z" fill="black"/>
<path d="M147.898 330.606C148.76 331.867 149.166 333.081 149.117 334.246C149.067 335.411 148.549 336.331 147.564 337.005C146.558 337.693 145.549 337.915 144.536 337.671L147.264 341.661L145.848 342.63L138.002 331.159L139.296 330.274L139.994 331.145C140.082 330.036 140.639 329.131 141.665 328.429C142.661 327.748 143.703 327.585 144.794 327.941C145.889 328.294 146.894 329.139 147.809 330.476L147.898 330.606ZM146.371 331.415C145.732 330.48 145.028 329.879 144.26 329.61C143.492 329.341 142.76 329.444 142.066 329.919C141.208 330.506 140.825 331.326 140.917 332.38L143.624 336.339C144.565 336.805 145.472 336.739 146.345 336.142C147.024 335.678 147.379 335.041 147.41 334.233C147.444 333.416 147.097 332.476 146.371 331.415ZM156.018 331.223C154.895 331.991 153.73 332.249 152.523 331.995C151.312 331.737 150.284 330.99 149.439 329.754L149.261 329.494C148.699 328.672 148.354 327.833 148.225 326.977C148.098 326.112 148.192 325.306 148.505 324.56C148.821 323.805 149.307 323.202 149.966 322.752C151.043 322.015 152.123 321.797 153.206 322.098C154.288 322.399 155.282 323.211 156.186 324.533L156.589 325.123L150.976 328.962C151.555 329.765 152.245 330.263 153.045 330.458C153.846 330.644 154.6 330.496 155.304 330.014C155.804 329.672 156.158 329.28 156.366 328.839C156.573 328.397 156.692 327.919 156.722 327.404L158.048 327.486C158.083 329.028 157.407 330.273 156.018 331.223ZM150.762 323.916C150.19 324.307 149.854 324.844 149.752 325.528C149.647 326.207 149.805 326.953 150.226 327.766L154.377 324.928L154.303 324.821C153.77 324.129 153.196 323.705 152.58 323.549C151.96 323.388 151.354 323.511 150.762 323.916ZM164.113 322.237C163.851 321.854 163.503 321.657 163.069 321.647C162.636 321.628 162.008 321.788 161.183 322.127C160.364 322.463 159.669 322.668 159.098 322.744C158.533 322.816 158.047 322.773 157.64 322.617C157.239 322.457 156.898 322.173 156.619 321.764C156.155 321.085 156.048 320.316 156.298 319.455C156.554 318.591 157.129 317.853 158.022 317.242C158.961 316.6 159.888 316.322 160.801 316.409C161.72 316.492 162.438 316.912 162.955 317.667L161.53 318.641C161.265 318.253 160.87 318.033 160.347 317.979C159.828 317.921 159.318 318.064 158.818 318.406C158.302 318.759 157.976 319.147 157.839 319.57C157.701 319.994 157.756 320.387 158.004 320.75C158.238 321.092 158.55 321.257 158.939 321.245C159.328 321.234 159.929 321.066 160.742 320.743C161.56 320.416 162.264 320.212 162.853 320.131C163.442 320.05 163.948 320.094 164.37 320.262C164.794 320.422 165.158 320.724 165.461 321.168C165.968 321.908 166.078 322.706 165.793 323.56C165.505 324.409 164.888 325.157 163.944 325.803C163.28 326.256 162.613 326.541 161.942 326.655C161.271 326.769 160.647 326.717 160.069 326.497C159.494 326.269 159.038 325.91 158.703 325.419L160.12 324.451C160.47 324.908 160.917 325.157 161.461 325.196C162.007 325.228 162.571 325.044 163.153 324.646C163.689 324.28 164.045 323.879 164.22 323.445C164.396 323.002 164.361 322.599 164.113 322.237ZM165.617 318.241C165.062 317.429 164.721 316.591 164.594 315.726C164.472 314.857 164.574 314.053 164.9 313.314C165.231 312.57 165.761 311.949 166.491 311.45C167.62 310.678 168.798 310.445 170.026 310.752C171.26 311.054 172.32 311.854 173.207 313.151L173.275 313.25C173.827 314.057 174.167 314.888 174.295 315.745C174.426 316.592 174.324 317.392 173.992 318.144C173.665 318.892 173.128 319.521 172.383 320.031C171.26 320.799 170.081 321.032 168.848 320.729C167.619 320.423 166.565 319.627 165.685 318.34L165.617 318.241ZM167.157 317.435C167.785 318.354 168.502 318.947 169.306 319.213C170.115 319.476 170.877 319.364 171.592 318.875C172.312 318.383 172.692 317.711 172.731 316.859C172.767 316.003 172.438 315.067 171.743 314.051C171.122 313.142 170.402 312.555 169.584 312.29C168.768 312.017 168.002 312.125 167.287 312.614C166.588 313.092 166.214 313.756 166.166 314.606C166.118 315.455 166.448 316.399 167.157 317.435ZM182.693 300.661C183.074 301.218 183.265 301.814 183.265 302.45C183.271 303.083 183.108 303.693 182.775 304.281C183.528 304.133 184.237 304.184 184.902 304.433C185.572 304.679 186.115 305.106 186.531 305.713C187.191 306.678 187.389 307.67 187.127 308.689C186.87 309.704 186.21 310.574 185.148 311.301C184.076 312.034 183.02 312.336 181.981 312.208C180.943 312.071 180.096 311.523 179.44 310.563C179.028 309.96 178.819 309.305 178.814 308.597C178.814 307.885 179.02 307.205 179.431 306.556C178.768 306.65 178.145 306.578 177.563 306.339C176.98 306.101 176.5 305.706 176.123 305.155C175.481 304.215 175.272 303.264 175.497 302.301C175.723 301.337 176.328 300.519 177.313 299.845C178.294 299.174 179.273 298.909 180.253 299.048C181.237 299.184 182.051 299.722 182.693 300.661ZM185.093 306.651C184.667 306.029 184.121 305.657 183.454 305.536C182.792 305.412 182.142 305.568 181.504 306.004C180.865 306.441 180.485 306.986 180.362 307.639C180.245 308.289 180.403 308.93 180.835 309.563C181.268 310.196 181.795 310.567 182.416 310.674C183.041 310.778 183.689 310.602 184.357 310.144C185.021 309.69 185.418 309.153 185.548 308.532C185.674 307.906 185.523 307.279 185.093 306.651ZM178.109 301.009C177.553 301.389 177.22 301.872 177.11 302.456C177.002 303.032 177.15 303.616 177.555 304.209C177.943 304.775 178.426 305.12 179.004 305.241C179.583 305.355 180.156 305.217 180.723 304.83C181.289 304.442 181.623 303.96 181.722 303.382C181.823 302.796 181.68 302.22 181.292 301.653C180.905 301.086 180.413 300.745 179.816 300.628C179.219 300.512 178.651 300.639 178.109 301.009ZM190.041 306.639C189.874 306.394 189.806 306.141 189.837 305.88C189.873 305.615 190.037 305.383 190.328 305.184C190.619 304.985 190.894 304.917 191.154 304.979C191.419 305.038 191.635 305.19 191.803 305.435C191.963 305.669 192.021 305.918 191.976 306.181C191.936 306.441 191.771 306.67 191.48 306.869C191.189 307.068 190.915 307.139 190.659 307.082C190.408 307.022 190.202 306.874 190.041 306.639ZM194.626 289.398L197.089 302.909L195.604 303.925L193.376 290.792L187.342 294.919L186.546 293.755L194.081 288.602L194.626 289.398Z" fill="black"/>
<path d="M289.354 282.646C289.158 282.451 288.842 282.451 288.646 282.646L285.464 285.828C285.269 286.024 285.269 286.34 285.464 286.536C285.66 286.731 285.976 286.731 286.172 286.536L289 283.707L291.828 286.536C292.024 286.731 292.34 286.731 292.536 286.536C292.731 286.34 292.731 286.024 292.536 285.828L289.354 282.646ZM289.5 347V283H288.5V347H289.5Z" fill="black"/>
<path d="M276.797 361.092C276.797 362.626 276.444 363.86 275.739 364.794C275.034 365.722 274.088 366.186 272.9 366.186C271.632 366.186 270.652 365.737 269.959 364.84L269.876 366H268.299V351.75H270.015V357.066C270.708 356.206 271.663 355.776 272.882 355.776C274.1 355.776 275.056 356.237 275.749 357.159C276.447 358.08 276.797 359.342 276.797 360.944V361.092ZM275.081 360.897C275.081 359.729 274.855 358.826 274.403 358.188C273.952 357.551 273.302 357.233 272.455 357.233C271.323 357.233 270.51 357.759 270.015 358.81V363.152C270.541 364.203 271.36 364.729 272.474 364.729C273.296 364.729 273.936 364.41 274.394 363.773C274.852 363.136 275.081 362.178 275.081 360.897ZM280.833 366H279.116V355.962H280.833V366ZM278.977 353.299C278.977 353.021 279.061 352.786 279.228 352.594C279.401 352.403 279.654 352.307 279.988 352.307C280.322 352.307 280.576 352.403 280.749 352.594C280.922 352.786 281.009 353.021 281.009 353.299C281.009 353.578 280.922 353.81 280.749 353.995C280.576 354.181 280.322 354.273 279.988 354.273C279.654 354.273 279.401 354.181 279.228 353.995C279.061 353.81 278.977 353.578 278.977 353.299ZM289.785 366C289.686 365.802 289.606 365.45 289.544 364.942C288.746 365.771 287.794 366.186 286.687 366.186C285.697 366.186 284.884 365.907 284.247 365.351C283.616 364.788 283.3 364.076 283.3 363.217C283.3 362.172 283.696 361.361 284.488 360.786C285.286 360.205 286.405 359.914 287.846 359.914H289.516V359.125C289.516 358.526 289.337 358.049 288.978 357.697C288.619 357.338 288.09 357.159 287.392 357.159C286.779 357.159 286.266 357.313 285.852 357.623C285.437 357.932 285.23 358.306 285.23 358.745H283.504C283.504 358.244 283.681 357.762 284.033 357.298C284.392 356.828 284.874 356.457 285.48 356.185C286.093 355.912 286.764 355.776 287.494 355.776C288.65 355.776 289.556 356.067 290.212 356.648C290.868 357.224 291.208 358.018 291.232 359.033V363.653C291.232 364.574 291.35 365.307 291.585 365.852V366H289.785ZM286.937 364.692C287.475 364.692 287.985 364.553 288.468 364.274C288.95 363.996 289.3 363.634 289.516 363.189V361.129H288.171C286.068 361.129 285.017 361.745 285.017 362.976C285.017 363.514 285.196 363.934 285.555 364.237C285.913 364.54 286.374 364.692 286.937 364.692ZM299.768 363.337C299.768 362.874 299.591 362.515 299.239 362.261C298.892 362.001 298.283 361.779 297.411 361.593C296.545 361.408 295.856 361.185 295.342 360.925C294.835 360.666 294.458 360.356 294.21 359.998C293.969 359.639 293.849 359.212 293.849 358.717C293.849 357.895 294.195 357.199 294.888 356.63C295.587 356.061 296.477 355.776 297.56 355.776C298.698 355.776 299.619 356.07 300.324 356.658C301.035 357.245 301.391 357.997 301.391 358.912H299.666C299.666 358.442 299.465 358.037 299.062 357.697C298.667 357.357 298.166 357.187 297.56 357.187C296.935 357.187 296.446 357.323 296.094 357.595C295.741 357.867 295.565 358.222 295.565 358.662C295.565 359.076 295.729 359.388 296.057 359.599C296.384 359.809 296.975 360.01 297.829 360.202C298.688 360.393 299.384 360.622 299.916 360.888C300.448 361.154 300.841 361.476 301.094 361.853C301.354 362.224 301.484 362.679 301.484 363.217C301.484 364.114 301.125 364.834 300.408 365.378C299.69 365.917 298.759 366.186 297.615 366.186C296.811 366.186 296.1 366.043 295.481 365.759C294.863 365.474 294.377 365.078 294.025 364.571C293.679 364.058 293.505 363.504 293.505 362.911H295.222C295.253 363.486 295.481 363.944 295.908 364.284C296.341 364.618 296.91 364.785 297.615 364.785C298.265 364.785 298.784 364.655 299.174 364.395C299.57 364.129 299.768 363.777 299.768 363.337ZM310.752 358.411H312.042C312.852 358.399 313.489 358.185 313.953 357.771C314.417 357.357 314.648 356.797 314.648 356.092C314.648 354.508 313.86 353.717 312.283 353.717C311.541 353.717 310.947 353.93 310.501 354.357C310.062 354.778 309.843 355.337 309.843 356.036H308.126C308.126 354.966 308.516 354.079 309.295 353.374C310.081 352.662 311.077 352.307 312.283 352.307C313.557 352.307 314.556 352.644 315.279 353.318C316.003 353.992 316.365 354.929 316.365 356.129C316.365 356.716 316.173 357.285 315.79 357.836C315.412 358.386 314.896 358.798 314.24 359.07C314.982 359.305 315.555 359.694 315.957 360.239C316.365 360.783 316.569 361.448 316.569 362.233C316.569 363.446 316.173 364.407 315.381 365.119C314.59 365.83 313.56 366.186 312.292 366.186C311.024 366.186 309.991 365.842 309.193 365.156C308.402 364.469 308.006 363.563 308.006 362.438H309.731C309.731 363.149 309.963 363.718 310.427 364.145C310.891 364.571 311.513 364.785 312.292 364.785C313.121 364.785 313.755 364.568 314.194 364.135C314.633 363.702 314.853 363.081 314.853 362.271C314.853 361.485 314.611 360.882 314.129 360.461C313.646 360.041 312.951 359.824 312.042 359.812H310.752V358.411Z" fill="black"/>
<path d="M421.354 236.354C421.549 236.158 421.549 235.842 421.354 235.646L418.172 232.464C417.976 232.269 417.66 232.269 417.464 232.464C417.269 232.66 417.269 232.976 417.464 233.172L420.293 236L417.464 238.828C417.269 239.024 417.269 239.34 417.464 239.536C417.66 239.731 417.976 239.731 418.172 239.536L421.354 236.354ZM336 236.5H421V235.5H336V236.5Z" fill="black"/>
<path d="M354.844 219.888C354.844 218.905 355.036 218.02 355.419 217.235C355.809 216.449 356.347 215.843 357.034 215.417C357.726 214.99 358.515 214.776 359.399 214.776C360.766 214.776 361.87 215.25 362.711 216.196C363.559 217.142 363.982 218.401 363.982 219.972V220.092C363.982 221.069 363.794 221.948 363.417 222.727C363.045 223.5 362.51 224.103 361.812 224.536C361.119 224.969 360.321 225.186 359.418 225.186C358.057 225.186 356.953 224.712 356.106 223.766C355.265 222.82 354.844 221.567 354.844 220.009V219.888ZM356.57 220.092C356.57 221.206 356.826 222.099 357.34 222.773C357.859 223.448 358.552 223.785 359.418 223.785C360.29 223.785 360.983 223.444 361.496 222.764C362.009 222.078 362.266 221.119 362.266 219.888C362.266 218.787 362.003 217.897 361.478 217.216C360.958 216.53 360.265 216.187 359.399 216.187C358.552 216.187 357.869 216.524 357.349 217.198C356.83 217.872 356.57 218.837 356.57 220.092ZM372.332 224.007C371.664 224.793 370.684 225.186 369.391 225.186C368.321 225.186 367.505 224.876 366.942 224.258C366.385 223.633 366.104 222.712 366.098 221.493V214.962H367.814V221.447C367.814 222.968 368.432 223.729 369.669 223.729C370.981 223.729 371.853 223.24 372.286 222.263V214.962H374.002V225H372.369L372.332 224.007ZM378.947 212.531V214.962H380.821V216.289H378.947V222.514C378.947 222.916 379.03 223.219 379.197 223.423C379.364 223.621 379.649 223.72 380.051 223.72C380.249 223.72 380.521 223.683 380.867 223.608V225C380.416 225.124 379.977 225.186 379.55 225.186C378.783 225.186 378.205 224.954 377.815 224.49C377.425 224.026 377.23 223.367 377.23 222.514V216.289H375.403V214.962H377.23V212.531H378.947ZM391.313 220.092C391.313 221.62 390.964 222.851 390.265 223.785C389.566 224.719 388.62 225.186 387.426 225.186C386.208 225.186 385.249 224.799 384.55 224.026V228.859H382.834V214.962H384.402L384.485 216.075C385.184 215.209 386.155 214.776 387.398 214.776C388.604 214.776 389.557 215.231 390.256 216.14C390.961 217.049 391.313 218.314 391.313 219.935V220.092ZM389.597 219.897C389.597 218.766 389.356 217.872 388.874 217.216C388.391 216.561 387.729 216.233 386.888 216.233C385.849 216.233 385.07 216.694 384.55 217.615V222.412C385.064 223.327 385.849 223.785 386.907 223.785C387.729 223.785 388.382 223.46 388.864 222.811C389.353 222.155 389.597 221.184 389.597 219.897ZM399.7 224.007C399.032 224.793 398.052 225.186 396.759 225.186C395.689 225.186 394.873 224.876 394.31 224.258C393.753 223.633 393.472 222.712 393.466 221.493V214.962H395.182V221.447C395.182 222.968 395.801 223.729 397.038 223.729C398.349 223.729 399.221 223.24 399.654 222.263V214.962H401.37V225H399.737L399.7 224.007ZM406.315 212.531V214.962H408.189V216.289H406.315V222.514C406.315 222.916 406.398 223.219 406.565 223.423C406.732 223.621 407.017 223.72 407.419 223.72C407.617 223.72 407.889 223.683 408.235 223.608V225C407.784 225.124 407.345 225.186 406.918 225.186C406.151 225.186 405.573 224.954 405.183 224.49C404.793 224.026 404.599 223.367 404.599 222.514V216.289H402.771V214.962H404.599V212.531H406.315ZM422.764 217.448H415.026V215.955H422.764V217.448ZM422.764 221.298H415.026V219.814H422.764V221.298ZM435.52 225H433.794V213.561L430.334 214.832V213.273L435.251 211.427H435.52V225ZM440.762 224.1C440.762 223.803 440.848 223.556 441.021 223.358C441.201 223.16 441.467 223.061 441.819 223.061C442.172 223.061 442.438 223.16 442.617 223.358C442.803 223.556 442.896 223.803 442.896 224.1C442.896 224.385 442.803 224.623 442.617 224.814C442.438 225.006 442.172 225.102 441.819 225.102C441.467 225.102 441.201 225.006 441.021 224.814C440.848 224.623 440.762 224.385 440.762 224.1ZM454.409 225H445.558V223.766L450.234 218.571C450.927 217.785 451.403 217.148 451.663 216.66C451.929 216.165 452.062 215.655 452.062 215.129C452.062 214.424 451.848 213.846 451.421 213.394C450.995 212.943 450.426 212.717 449.714 212.717C448.861 212.717 448.196 212.961 447.72 213.45C447.25 213.932 447.015 214.606 447.015 215.472H445.298C445.298 214.229 445.697 213.224 446.495 212.457C447.299 211.69 448.372 211.307 449.714 211.307C450.97 211.307 451.963 211.638 452.692 212.299C453.422 212.955 453.787 213.83 453.787 214.925C453.787 216.255 452.94 217.838 451.245 219.675L447.627 223.599H454.409V225ZM458.166 215.88L455.364 215.045L455.791 213.645L458.593 214.684L458.509 211.492H459.929L459.836 214.73L462.591 213.709L463.018 215.12L460.17 215.964L462.007 218.478L460.856 219.35L459.131 216.678L457.461 219.285L456.301 218.441L458.166 215.88ZM466.905 217.411H468.195C469.005 217.399 469.642 217.185 470.106 216.771C470.57 216.357 470.802 215.797 470.802 215.092C470.802 213.508 470.013 212.717 468.436 212.717C467.694 212.717 467.1 212.93 466.655 213.357C466.216 213.778 465.996 214.337 465.996 215.036H464.28C464.28 213.966 464.669 213.079 465.449 212.374C466.234 211.662 467.23 211.307 468.436 211.307C469.71 211.307 470.709 211.644 471.433 212.318C472.156 212.992 472.518 213.929 472.518 215.129C472.518 215.716 472.326 216.285 471.943 216.836C471.566 217.386 471.049 217.798 470.394 218.07C471.136 218.305 471.708 218.694 472.11 219.239C472.518 219.783 472.722 220.448 472.722 221.233C472.722 222.446 472.326 223.407 471.535 224.119C470.743 224.83 469.713 225.186 468.445 225.186C467.177 225.186 466.145 224.842 465.347 224.156C464.555 223.469 464.159 222.563 464.159 221.438H465.885C465.885 222.149 466.117 222.718 466.581 223.145C467.044 223.571 467.666 223.785 468.445 223.785C469.274 223.785 469.908 223.568 470.347 223.135C470.786 222.702 471.006 222.081 471.006 221.271C471.006 220.485 470.765 219.882 470.282 219.461C469.8 219.041 469.104 218.824 468.195 218.812H466.905V217.411ZM475.292 224.1C475.292 223.803 475.379 223.556 475.552 223.358C475.731 223.16 475.997 223.061 476.35 223.061C476.702 223.061 476.968 223.16 477.147 223.358C477.333 223.556 477.426 223.803 477.426 224.1C477.426 224.385 477.333 224.623 477.147 224.814C476.968 225.006 476.702 225.102 476.35 225.102C475.997 225.102 475.731 225.006 475.552 224.814C475.379 224.623 475.292 224.385 475.292 224.1ZM485.729 225H484.003V213.561L480.543 214.832V213.273L485.46 211.427H485.729V225ZM500.563 217.754H504.33V219.378H500.563V223.646H498.838V219.378H495.071V217.754H498.838V213.812H500.563V217.754ZM511.752 218.228L512.438 211.492H519.359V213.079H513.895L513.487 216.762C514.149 216.372 514.9 216.177 515.741 216.177C516.972 216.177 517.949 216.585 518.673 217.402C519.396 218.212 519.758 219.31 519.758 220.695C519.758 222.087 519.381 223.185 518.626 223.989C517.878 224.787 516.83 225.186 515.481 225.186C514.288 225.186 513.314 224.855 512.559 224.193C511.805 223.531 511.375 222.616 511.27 221.447H512.893C512.998 222.22 513.273 222.804 513.719 223.2C514.164 223.59 514.752 223.785 515.481 223.785C516.279 223.785 516.904 223.513 517.355 222.968C517.813 222.424 518.042 221.673 518.042 220.714C518.042 219.811 517.795 219.087 517.3 218.543C516.811 217.993 516.159 217.717 515.342 217.717C514.594 217.717 514.006 217.881 513.58 218.209L513.125 218.58L511.752 218.228ZM521.846 224.1C521.846 223.803 521.932 223.556 522.105 223.358C522.285 223.16 522.551 223.061 522.903 223.061C523.256 223.061 523.522 223.16 523.701 223.358C523.887 223.556 523.979 223.803 523.979 224.1C523.979 224.385 523.887 224.623 523.701 224.814C523.522 225.006 523.256 225.102 522.903 225.102C522.551 225.102 522.285 225.006 522.105 224.814C521.932 224.623 521.846 224.385 521.846 224.1ZM532.283 225H530.557V213.561L527.097 214.832V213.273L532.014 211.427H532.283V225ZM539.25 215.88L536.448 215.045L536.875 213.645L539.677 214.684L539.593 211.492H541.013L540.92 214.73L543.675 213.709L544.102 215.12L541.254 215.964L543.091 218.478L541.94 219.35L540.215 216.678L538.545 219.285L537.385 218.441L539.25 215.88ZM554.344 225H545.494V223.766L550.169 218.571C550.862 217.785 551.338 217.148 551.598 216.66C551.864 216.165 551.997 215.655 551.997 215.129C551.997 214.424 551.784 213.846 551.357 213.394C550.93 212.943 550.361 212.717 549.65 212.717C548.796 212.717 548.132 212.961 547.655 213.45C547.185 213.932 546.95 214.606 546.95 215.472H545.234C545.234 214.229 545.633 213.224 546.431 212.457C547.235 211.69 548.308 211.307 549.65 211.307C550.905 211.307 551.898 211.638 552.628 212.299C553.358 212.955 553.723 213.83 553.723 214.925C553.723 216.255 552.875 217.838 551.181 219.675L547.562 223.599H554.344V225ZM556.376 224.1C556.376 223.803 556.463 223.556 556.636 223.358C556.815 223.16 557.081 223.061 557.434 223.061C557.786 223.061 558.052 223.16 558.231 223.358C558.417 223.556 558.51 223.803 558.51 224.1C558.51 224.385 558.417 224.623 558.231 224.814C558.052 225.006 557.786 225.102 557.434 225.102C557.081 225.102 556.815 225.006 556.636 224.814C556.463 224.623 556.376 224.385 556.376 224.1ZM566.813 225H565.087V213.561L561.627 214.832V213.273L566.544 211.427H566.813V225ZM581.647 217.754H585.414V219.378H581.647V223.646H579.922V219.378H576.155V217.754H579.922V213.812H581.647V217.754ZM600.898 225H592.047V223.766L596.723 218.571C597.416 217.785 597.892 217.148 598.152 216.66C598.418 216.165 598.551 215.655 598.551 215.129C598.551 214.424 598.337 213.846 597.911 213.394C597.484 212.943 596.915 212.717 596.204 212.717C595.35 212.717 594.685 212.961 594.209 213.45C593.739 213.932 593.504 214.606 593.504 215.472H591.788C591.788 214.229 592.187 213.224 592.984 212.457C593.788 211.69 594.861 211.307 596.204 211.307C597.459 211.307 598.452 211.638 599.182 212.299C599.911 212.955 600.276 213.83 600.276 214.925C600.276 216.255 599.429 217.838 597.734 219.675L594.116 223.599H600.898V225ZM602.93 224.1C602.93 223.803 603.016 223.556 603.189 223.358C603.369 223.16 603.635 223.061 603.987 223.061C604.34 223.061 604.606 223.16 604.785 223.358C604.971 223.556 605.063 223.803 605.063 224.1C605.063 224.385 604.971 224.623 604.785 224.814C604.606 225.006 604.34 225.102 603.987 225.102C603.635 225.102 603.369 225.006 603.189 224.814C603.016 224.623 602.93 224.385 602.93 224.1ZM613.367 225H611.641V213.561L608.181 214.832V213.273L613.098 211.427H613.367V225ZM620.334 215.88L617.532 215.045L617.959 213.645L620.761 214.684L620.677 211.492H622.097L622.004 214.73L624.759 213.709L625.186 215.12L622.338 215.964L624.175 218.478L623.024 219.35L621.299 216.678L619.629 219.285L618.469 218.441L620.334 215.88ZM634.77 215.018C634.77 215.692 634.59 216.292 634.231 216.817C633.879 217.343 633.4 217.754 632.793 218.051C633.499 218.354 634.055 218.797 634.463 219.378C634.878 219.959 635.085 220.618 635.085 221.354C635.085 222.523 634.689 223.454 633.897 224.146C633.112 224.839 632.076 225.186 630.79 225.186C629.491 225.186 628.449 224.839 627.663 224.146C626.884 223.448 626.494 222.517 626.494 221.354C626.494 220.624 626.692 219.965 627.088 219.378C627.49 218.79 628.043 218.345 628.749 218.042C628.149 217.745 627.675 217.334 627.329 216.808C626.983 216.282 626.81 215.686 626.81 215.018C626.81 213.88 627.174 212.977 627.904 212.309C628.634 211.641 629.596 211.307 630.79 211.307C631.977 211.307 632.936 211.641 633.666 212.309C634.402 212.977 634.77 213.88 634.77 215.018ZM633.369 221.317C633.369 220.562 633.127 219.947 632.645 219.471C632.169 218.994 631.544 218.756 630.771 218.756C629.998 218.756 629.376 218.991 628.906 219.461C628.442 219.931 628.21 220.55 628.21 221.317C628.21 222.084 628.436 222.687 628.888 223.126C629.345 223.565 629.979 223.785 630.79 223.785C631.594 223.785 632.224 223.565 632.682 223.126C633.14 222.681 633.369 222.078 633.369 221.317ZM630.79 212.717C630.115 212.717 629.568 212.927 629.147 213.348C628.733 213.762 628.526 214.328 628.526 215.045C628.526 215.732 628.73 216.289 629.138 216.715C629.553 217.136 630.103 217.346 630.79 217.346C631.476 217.346 632.023 217.136 632.432 216.715C632.846 216.289 633.053 215.732 633.053 215.045C633.053 214.359 632.84 213.799 632.413 213.366C631.986 212.933 631.445 212.717 630.79 212.717ZM637.46 224.1C637.46 223.803 637.547 223.556 637.72 223.358C637.899 223.16 638.165 223.061 638.518 223.061C638.87 223.061 639.136 223.16 639.315 223.358C639.501 223.556 639.594 223.803 639.594 224.1C639.594 224.385 639.501 224.623 639.315 224.814C639.136 225.006 638.87 225.102 638.518 225.102C638.165 225.102 637.899 225.006 637.72 224.814C637.547 224.623 637.46 224.385 637.46 224.1ZM650.977 212.457L645.383 225H643.583L649.159 212.902H641.848V211.492H650.977V212.457ZM662.731 217.754H666.498V219.378H662.731V223.646H661.006V219.378H657.239V217.754H661.006V213.812H662.731V217.754ZM675.627 217.411H676.917C677.727 217.399 678.364 217.185 678.828 216.771C679.292 216.357 679.523 215.797 679.523 215.092C679.523 213.508 678.735 212.717 677.158 212.717C676.416 212.717 675.822 212.93 675.376 213.357C674.937 213.778 674.718 214.337 674.718 215.036H673.001C673.001 213.966 673.391 213.079 674.17 212.374C674.956 211.662 675.952 211.307 677.158 211.307C678.432 211.307 679.431 211.644 680.154 212.318C680.878 212.992 681.24 213.929 681.24 215.129C681.24 215.716 681.048 216.285 680.665 216.836C680.287 217.386 679.771 217.798 679.115 218.07C679.857 218.305 680.43 218.694 680.832 219.239C681.24 219.783 681.444 220.448 681.444 221.233C681.444 222.446 681.048 223.407 680.256 224.119C679.465 224.83 678.435 225.186 677.167 225.186C675.899 225.186 674.866 224.842 674.068 224.156C673.277 223.469 672.881 222.563 672.881 221.438H674.606C674.606 222.149 674.838 222.718 675.302 223.145C675.766 223.571 676.388 223.785 677.167 223.785C677.996 223.785 678.63 223.568 679.069 223.135C679.508 222.702 679.728 222.081 679.728 221.271C679.728 220.485 679.486 219.882 679.004 219.461C678.521 219.041 677.826 218.824 676.917 218.812H675.627V217.411Z" fill="black"/>
</svg>
