<svg width="686" height="457" viewBox="0 0 686 457" fill="none" xmlns="http://www.w3.org/2000/svg">
<rect width="686" height="457" fill="white"/>
<circle cx="63" cy="96" r="47" fill="#CA713F"/>
<circle cx="289" cy="236" r="47" fill="#4083B5"/>
<circle cx="63" cy="376" r="47" fill="#CA713F"/>
<circle cx="63" cy="236" r="47" fill="#CA713F"/>
<path d="M254.075 202.494C254.348 202.453 254.536 202.198 254.494 201.925L253.818 197.476C253.777 197.203 253.522 197.015 253.249 197.057C252.976 197.098 252.788 197.353 252.829 197.626L253.431 201.581L249.476 202.182C249.203 202.223 249.015 202.478 249.057 202.751C249.098 203.024 249.353 203.212 249.626 203.171L254.075 202.494ZM109.704 96.4027L253.704 202.403L254.296 201.597L110.296 95.5973L109.704 96.4027Z" fill="black"/>
<path d="M242.354 236.354C242.549 236.158 242.549 235.842 242.354 235.646L239.172 232.464C238.976 232.269 238.66 232.269 238.464 232.464C238.269 232.66 238.269 232.976 238.464 233.172L241.293 236L238.464 238.828C238.269 239.024 238.269 239.34 238.464 239.536C238.66 239.731 238.976 239.731 239.172 239.536L242.354 236.354ZM110 236.5H242V235.5H110V236.5Z" fill="black"/>
<path d="M254.491 271.096C254.544 270.825 254.367 270.562 254.096 270.509L249.679 269.648C249.408 269.595 249.145 269.772 249.092 270.043C249.04 270.314 249.216 270.577 249.488 270.629L253.414 271.395L252.648 275.321C252.595 275.592 252.772 275.855 253.043 275.908C253.314 275.96 253.577 275.784 253.629 275.512L254.491 271.096ZM110.279 368.415L254.279 271.415L253.721 270.585L109.721 367.585L110.279 368.415Z" fill="black"/>
<path d="M9.479 17H7.69775V3.49219H9.479V17ZM14.0991 6.96191L14.1548 8.22363C14.9217 7.25879 15.9237 6.77637 17.1606 6.77637C19.2821 6.77637 20.3521 7.97314 20.3706 10.3667V17H18.6543V10.3574C18.6481 9.63379 18.4811 9.0988 18.1533 8.75244C17.8317 8.40609 17.3276 8.23291 16.6411 8.23291C16.0845 8.23291 15.5959 8.38135 15.1753 8.67822C14.7547 8.9751 14.4269 9.36475 14.1919 9.84717V17H12.4756V6.96191H14.0991ZM31.4385 12.0923C31.4385 13.62 31.089 14.8507 30.3901 15.7847C29.6912 16.7186 28.745 17.1855 27.5513 17.1855C26.3328 17.1855 25.3742 16.799 24.6753 16.0259V20.8594H22.959V6.96191H24.5269L24.6104 8.0752C25.3092 7.20931 26.2803 6.77637 27.5234 6.77637C28.7295 6.77637 29.682 7.23096 30.3809 8.14014C31.0859 9.04932 31.4385 10.3141 31.4385 11.9346V12.0923ZM29.7222 11.8975C29.7222 10.7656 29.481 9.87191 28.9985 9.21631C28.5161 8.56071 27.8543 8.23291 27.0132 8.23291C25.9741 8.23291 25.1948 8.69368 24.6753 9.61523V14.4116C25.1886 15.327 25.9741 15.7847 27.0317 15.7847C27.8543 15.7847 28.5068 15.46 28.9893 14.8105C29.4779 14.1549 29.7222 13.1839 29.7222 11.8975ZM39.8252 16.0073C39.1572 16.7928 38.1769 17.1855 36.8843 17.1855C35.8143 17.1855 34.9979 16.8763 34.4351 16.2578C33.8784 15.6331 33.597 14.7116 33.5908 13.4932V6.96191H35.3071V13.4468C35.3071 14.9683 35.9256 15.729 37.1626 15.729C38.4738 15.729 39.3459 15.2404 39.7788 14.2632V6.96191H41.4951V17H39.8623L39.8252 16.0073ZM46.4399 4.53125V6.96191H48.314V8.28857H46.4399V14.5137C46.4399 14.9157 46.5234 15.2188 46.6904 15.4229C46.8574 15.6208 47.1419 15.7197 47.5439 15.7197C47.7419 15.7197 48.014 15.6826 48.3604 15.6084V17C47.9089 17.1237 47.4697 17.1855 47.043 17.1855C46.276 17.1855 45.6978 16.9536 45.3081 16.4897C44.9185 16.0259 44.7236 15.3672 44.7236 14.5137V8.28857H42.896V6.96191H44.7236V4.53125H46.4399ZM56.9048 17H55.1885V2.75H56.9048V17ZM65.8574 17C65.7585 16.8021 65.6781 16.4495 65.6162 15.9424C64.8184 16.7712 63.8659 17.1855 62.7588 17.1855C61.7692 17.1855 60.9559 16.9072 60.3188 16.3506C59.688 15.7878 59.3726 15.0765 59.3726 14.2168C59.3726 13.1715 59.7684 12.3613 60.5601 11.7861C61.3579 11.2048 62.4774 10.9141 63.9185 10.9141H65.5884V10.1255C65.5884 9.52555 65.409 9.04932 65.0503 8.69678C64.6916 8.33805 64.1628 8.15869 63.4639 8.15869C62.8516 8.15869 62.3382 8.31331 61.9238 8.62256C61.5094 8.9318 61.3022 9.30599 61.3022 9.74512H59.5767C59.5767 9.24414 59.7529 8.76172 60.1055 8.29785C60.4642 7.8278 60.9466 7.45671 61.5527 7.18457C62.165 6.91243 62.8361 6.77637 63.5659 6.77637C64.7225 6.77637 65.6286 7.06706 66.2842 7.64844C66.9398 8.22363 67.2799 9.01839 67.3047 10.0327V14.6528C67.3047 15.5744 67.4222 16.3073 67.6572 16.8516V17H65.8574ZM63.0093 15.6919C63.5474 15.6919 64.0576 15.5527 64.54 15.2744C65.0225 14.9961 65.3719 14.6343 65.5884 14.189V12.1294H64.2432C62.1403 12.1294 61.0889 12.7448 61.0889 13.9756C61.0889 14.5137 61.2682 14.9342 61.627 15.2373C61.9857 15.5404 62.4465 15.6919 63.0093 15.6919ZM73.1309 14.4858L75.4688 6.96191H77.3057L73.27 18.5493C72.6453 20.2192 71.6527 21.0542 70.292 21.0542L69.9673 21.0264L69.3271 20.9058V19.5142L69.791 19.5513C70.3724 19.5513 70.8239 19.4338 71.1455 19.1987C71.4733 18.9637 71.7424 18.5339 71.9526 17.9092L72.333 16.8887L68.752 6.96191H70.626L73.1309 14.4858ZM82.8813 17.1855C81.5207 17.1855 80.4136 16.7402 79.5601 15.8496C78.7065 14.9528 78.2798 13.756 78.2798 12.2593V11.9438C78.2798 10.9481 78.4684 10.0605 78.8457 9.28125C79.2292 8.49577 79.7611 7.88346 80.4414 7.44434C81.1279 6.99902 81.8701 6.77637 82.668 6.77637C83.973 6.77637 84.9873 7.20622 85.7109 8.06592C86.4346 8.92562 86.7964 10.1564 86.7964 11.7583V12.4727H79.9961C80.0208 13.4622 80.3084 14.2632 80.8589 14.8755C81.4155 15.4816 82.1206 15.7847 82.9741 15.7847C83.5802 15.7847 84.0936 15.661 84.5142 15.4136C84.9347 15.1662 85.3027 14.8384 85.6182 14.4302L86.6665 15.2466C85.8254 16.5392 84.5636 17.1855 82.8813 17.1855ZM82.668 8.18652C81.9753 8.18652 81.3939 8.4401 80.9238 8.94727C80.4538 9.44824 80.1631 10.1533 80.0518 11.0625H85.0801V10.9326C85.0306 10.0605 84.7956 9.38639 84.375 8.91016C83.9544 8.42773 83.3854 8.18652 82.668 8.18652ZM93.6431 8.50195C93.3833 8.45866 93.1019 8.43701 92.7988 8.43701C91.6732 8.43701 90.9093 8.91634 90.5073 9.875V17H88.791V6.96191H90.4609L90.4888 8.12158C91.0516 7.22477 91.8494 6.77637 92.8823 6.77637C93.2163 6.77637 93.4699 6.81966 93.6431 6.90625V8.50195ZM7.23389 33.5171C7.23389 32.1193 7.41943 30.7772 7.79053 29.4907C8.16781 28.2043 8.72754 27.0353 9.46973 25.9839C10.2119 24.9325 10.9819 24.1903 11.7798 23.7573L12.1323 24.8892C11.2293 25.5819 10.4871 26.6395 9.90576 28.062C9.33057 29.4845 9.01514 31.0771 8.95947 32.8398L8.9502 33.6284C8.9502 36.0158 9.38623 38.0877 10.2583 39.8442C10.784 40.8957 11.4087 41.7183 12.1323 42.312L11.7798 43.3604C10.9572 42.9027 10.1717 42.1357 9.42334 41.0596C7.9637 38.9567 7.23389 36.4425 7.23389 33.5171ZM13.3384 33.8882C13.3384 32.9048 13.5301 32.0203 13.9136 31.2349C14.3032 30.4494 14.8413 29.8433 15.5278 29.4165C16.2205 28.9897 17.0091 28.7764 17.8936 28.7764C19.2604 28.7764 20.3644 29.2495 21.2056 30.1958C22.0529 31.1421 22.4766 32.4007 22.4766 33.9717V34.0923C22.4766 35.0695 22.2879 35.9478 21.9106 36.7271C21.5396 37.5002 21.0046 38.1032 20.3057 38.5361C19.613 38.9691 18.8151 39.1855 17.9121 39.1855C16.5514 39.1855 15.4474 38.7124 14.6001 37.7661C13.759 36.8198 13.3384 35.5674 13.3384 34.0088V33.8882ZM15.064 34.0923C15.064 35.2056 15.3206 36.0993 15.834 36.7734C16.3535 37.4476 17.0462 37.7847 17.9121 37.7847C18.7842 37.7847 19.4769 37.4445 19.9902 36.7642C20.5036 36.0776 20.7603 35.119 20.7603 33.8882C20.7603 32.7873 20.4974 31.8966 19.9717 31.2163C19.4521 30.5298 18.7594 30.1865 17.8936 30.1865C17.0462 30.1865 16.3628 30.5236 15.8433 31.1978C15.3237 31.8719 15.064 32.8368 15.064 34.0923ZM31.0581 30.1772C31.8188 29.2433 32.8084 28.7764 34.0269 28.7764C36.1483 28.7764 37.2183 29.9731 37.2368 32.3667V39H35.5205V32.3574C35.5143 31.6338 35.3473 31.0988 35.0195 30.7524C34.6979 30.4061 34.1938 30.2329 33.5073 30.2329C32.9507 30.2329 32.4621 30.3813 32.0415 30.6782C31.6209 30.9751 31.2931 31.3647 31.0581 31.8472V39H29.3418V24.75H31.0581V30.1772ZM41.6714 39H39.9551V28.9619H41.6714V39ZM39.8159 26.2993C39.8159 26.021 39.8994 25.786 40.0664 25.5942C40.2396 25.4025 40.4932 25.3066 40.8271 25.3066C41.1611 25.3066 41.4147 25.4025 41.5879 25.5942C41.7611 25.786 41.8477 26.021 41.8477 26.2993C41.8477 26.5776 41.7611 26.8096 41.5879 26.9951C41.4147 27.1807 41.1611 27.2734 40.8271 27.2734C40.4932 27.2734 40.2396 27.1807 40.0664 26.9951C39.8994 26.8096 39.8159 26.5776 39.8159 26.2993ZM44.0093 33.8975C44.0093 32.3574 44.3742 31.1204 45.104 30.1865C45.8338 29.2464 46.7894 28.7764 47.9707 28.7764C49.1458 28.7764 50.0767 29.1784 50.7632 29.9824V24.75H52.4795V39H50.9023L50.8188 37.9238C50.1323 38.765 49.1768 39.1855 47.9521 39.1855C46.7894 39.1855 45.84 38.7093 45.104 37.7568C44.3742 36.8044 44.0093 35.5612 44.0093 34.0273V33.8975ZM45.7256 34.0923C45.7256 35.2303 45.9606 36.1209 46.4307 36.7642C46.9007 37.4074 47.5501 37.729 48.3789 37.729C49.4674 37.729 50.2622 37.2404 50.7632 36.2632V31.6523C50.2498 30.7061 49.4613 30.2329 48.3975 30.2329C47.5563 30.2329 46.9007 30.5576 46.4307 31.207C45.9606 31.8564 45.7256 32.8182 45.7256 34.0923ZM54.7339 33.8975C54.7339 32.3574 55.0988 31.1204 55.8286 30.1865C56.5584 29.2464 57.514 28.7764 58.6953 28.7764C59.8704 28.7764 60.8013 29.1784 61.4878 29.9824V24.75H63.2041V39H61.627L61.5435 37.9238C60.8569 38.765 59.9014 39.1855 58.6768 39.1855C57.514 39.1855 56.5646 38.7093 55.8286 37.7568C55.0988 36.8044 54.7339 35.5612 54.7339 34.0273V33.8975ZM56.4502 34.0923C56.4502 35.2303 56.6852 36.1209 57.1553 36.7642C57.6253 37.4074 58.2747 37.729 59.1035 37.729C60.1921 37.729 60.9868 37.2404 61.4878 36.2632V31.6523C60.9744 30.7061 60.1859 30.2329 59.1221 30.2329C58.2809 30.2329 57.6253 30.5576 57.1553 31.207C56.6852 31.8564 56.4502 32.8182 56.4502 34.0923ZM70.0415 39.1855C68.6808 39.1855 67.5737 38.7402 66.7202 37.8496C65.8667 36.9528 65.4399 35.756 65.4399 34.2593V33.9438C65.4399 32.9481 65.6286 32.0605 66.0059 31.2812C66.3893 30.4958 66.9212 29.8835 67.6016 29.4443C68.2881 28.999 69.0303 28.7764 69.8281 28.7764C71.1331 28.7764 72.1475 29.2062 72.8711 30.0659C73.5947 30.9256 73.9565 32.1564 73.9565 33.7583V34.4727H67.1562C67.181 35.4622 67.4686 36.2632 68.019 36.8755C68.5757 37.4816 69.2808 37.7847 70.1343 37.7847C70.7404 37.7847 71.2537 37.661 71.6743 37.4136C72.0949 37.1662 72.4629 36.8384 72.7783 36.4302L73.8267 37.2466C72.9855 38.5392 71.7238 39.1855 70.0415 39.1855ZM69.8281 30.1865C69.1354 30.1865 68.554 30.4401 68.084 30.9473C67.6139 31.4482 67.3232 32.1533 67.2119 33.0625H72.2402V32.9326C72.1908 32.0605 71.9557 31.3864 71.5352 30.9102C71.1146 30.4277 70.5456 30.1865 69.8281 30.1865ZM77.5747 28.9619L77.6304 30.2236C78.3973 29.2588 79.3993 28.7764 80.6362 28.7764C82.7576 28.7764 83.8276 29.9731 83.8462 32.3667V39H82.1299V32.3574C82.1237 31.6338 81.9567 31.0988 81.6289 30.7524C81.3073 30.4061 80.8032 30.2329 80.1167 30.2329C79.5601 30.2329 79.0715 30.3813 78.6509 30.6782C78.2303 30.9751 77.9025 31.3647 77.6675 31.8472V39H75.9512V28.9619H77.5747ZM93.0122 39H91.2959V24.75H93.0122V39ZM101.965 39C101.866 38.8021 101.785 38.4495 101.724 37.9424C100.926 38.7712 99.9733 39.1855 98.8662 39.1855C97.8766 39.1855 97.0633 38.9072 96.4263 38.3506C95.7954 37.7878 95.48 37.0765 95.48 36.2168C95.48 35.1715 95.8758 34.3613 96.6675 33.7861C97.4653 33.2048 98.5848 32.9141 100.026 32.9141H101.696V32.1255C101.696 31.5256 101.516 31.0493 101.158 30.6968C100.799 30.3381 100.27 30.1587 99.5713 30.1587C98.959 30.1587 98.4456 30.3133 98.0312 30.6226C97.6169 30.9318 97.4097 31.306 97.4097 31.7451H95.6841C95.6841 31.2441 95.8604 30.7617 96.2129 30.2979C96.5716 29.8278 97.054 29.4567 97.6602 29.1846C98.2725 28.9124 98.9435 28.7764 99.6733 28.7764C100.83 28.7764 101.736 29.0671 102.392 29.6484C103.047 30.2236 103.387 31.0184 103.412 32.0327V36.6528C103.412 37.5744 103.53 38.3073 103.765 38.8516V39H101.965ZM99.1167 37.6919C99.6548 37.6919 100.165 37.5527 100.647 37.2744C101.13 36.9961 101.479 36.6343 101.696 36.189V34.1294H100.351C98.2477 34.1294 97.1963 34.7448 97.1963 35.9756C97.1963 36.5137 97.3757 36.9342 97.7344 37.2373C98.0931 37.5404 98.5539 37.6919 99.1167 37.6919ZM109.238 36.4858L111.576 28.9619H113.413L109.377 40.5493C108.753 42.2192 107.76 43.0542 106.399 43.0542L106.075 43.0264L105.435 42.9058V41.5142L105.898 41.5513C106.48 41.5513 106.931 41.4338 107.253 41.1987C107.581 40.9637 107.85 40.5339 108.06 39.9092L108.44 38.8887L104.859 28.9619H106.733L109.238 36.4858ZM118.989 39.1855C117.628 39.1855 116.521 38.7402 115.667 37.8496C114.814 36.9528 114.387 35.756 114.387 34.2593V33.9438C114.387 32.9481 114.576 32.0605 114.953 31.2812C115.337 30.4958 115.868 29.8835 116.549 29.4443C117.235 28.999 117.978 28.7764 118.775 28.7764C120.08 28.7764 121.095 29.2062 121.818 30.0659C122.542 30.9256 122.904 32.1564 122.904 33.7583V34.4727H116.104C116.128 35.4622 116.416 36.2632 116.966 36.8755C117.523 37.4816 118.228 37.7847 119.082 37.7847C119.688 37.7847 120.201 37.661 120.622 37.4136C121.042 37.1662 121.41 36.8384 121.726 36.4302L122.774 37.2466C121.933 38.5392 120.671 39.1855 118.989 39.1855ZM118.775 30.1865C118.083 30.1865 117.501 30.4401 117.031 30.9473C116.561 31.4482 116.271 32.1533 116.159 33.0625H121.188V32.9326C121.138 32.0605 120.903 31.3864 120.482 30.9102C120.062 30.4277 119.493 30.1865 118.775 30.1865ZM129.75 30.502C129.491 30.4587 129.209 30.437 128.906 30.437C127.781 30.437 127.017 30.9163 126.615 31.875V39H124.898V28.9619H126.568L126.596 30.1216C127.159 29.2248 127.957 28.7764 128.99 28.7764C129.324 28.7764 129.577 28.8197 129.75 28.9062V30.502ZM135.298 33.6099C135.298 34.9891 135.116 36.3127 134.751 37.5806C134.392 38.8423 133.839 40.0081 133.09 41.0781C132.348 42.1481 131.569 42.9089 130.752 43.3604L130.391 42.312C131.343 41.5822 132.107 40.4504 132.682 38.9165C133.264 37.3765 133.56 35.6694 133.573 33.7954V33.4985C133.573 32.1997 133.437 30.9937 133.165 29.8804C132.892 28.7609 132.512 27.759 132.023 26.8745C131.541 25.9901 130.997 25.3005 130.391 24.8057L130.752 23.7573C131.569 24.2088 132.345 24.9634 133.081 26.021C133.823 27.0786 134.377 28.2445 134.742 29.5186C135.113 30.7926 135.298 32.1564 135.298 33.6099Z" fill="black"/>
<path d="M230.479 34H228.698V20.4922H230.479V34ZM235.34 34H233.624V19.75H235.34V34ZM244.089 19.5737L245.072 20.2417C244.497 21.0272 244.2 21.8745 244.182 22.7837V24.0454H242.475V22.9692C242.475 22.3384 242.623 21.7137 242.92 21.0952C243.223 20.4767 243.613 19.9696 244.089 19.5737ZM247.011 19.5737L247.995 20.2417C247.419 21.0272 247.123 21.8745 247.104 22.7837V24.0454H245.397V22.9692C245.397 22.3384 245.545 21.7137 245.842 21.0952C246.145 20.4767 246.535 19.9696 247.011 19.5737ZM260.176 34H258.385L251.585 23.5908V34H249.794V20.4922H251.585L258.404 30.9478V20.4922H260.176V34ZM262.616 28.8882C262.616 27.9048 262.807 27.0203 263.191 26.2349C263.581 25.4494 264.119 24.8433 264.805 24.4165C265.498 23.9897 266.286 23.7764 267.171 23.7764C268.538 23.7764 269.642 24.2495 270.483 25.1958C271.33 26.1421 271.754 27.4007 271.754 28.9717V29.0923C271.754 30.0695 271.565 30.9478 271.188 31.7271C270.817 32.5002 270.282 33.1032 269.583 33.5361C268.89 33.9691 268.092 34.1855 267.189 34.1855C265.829 34.1855 264.725 33.7124 263.877 32.7661C263.036 31.8198 262.616 30.5674 262.616 29.0088V28.8882ZM264.341 29.0923C264.341 30.2056 264.598 31.0993 265.111 31.7734C265.631 32.4476 266.324 32.7847 267.189 32.7847C268.062 32.7847 268.754 32.4445 269.268 31.7642C269.781 31.0776 270.038 30.119 270.038 28.8882C270.038 27.7873 269.775 26.8966 269.249 26.2163C268.729 25.5298 268.037 25.1865 267.171 25.1865C266.324 25.1865 265.64 25.5236 265.121 26.1978C264.601 26.8719 264.341 27.8368 264.341 29.0923ZM279.751 31.3374C279.751 30.8735 279.575 30.5148 279.222 30.2612C278.876 30.0015 278.267 29.7788 277.395 29.5933C276.529 29.4077 275.839 29.1851 275.326 28.9253C274.819 28.6655 274.441 28.3563 274.194 27.9976C273.953 27.6388 273.832 27.2121 273.832 26.7173C273.832 25.8947 274.178 25.1989 274.871 24.6299C275.57 24.0609 276.461 23.7764 277.543 23.7764C278.681 23.7764 279.603 24.0701 280.308 24.6577C281.019 25.2453 281.375 25.9967 281.375 26.9121H279.649C279.649 26.4421 279.448 26.0369 279.046 25.6968C278.65 25.3566 278.149 25.1865 277.543 25.1865C276.918 25.1865 276.43 25.3226 276.077 25.5947C275.725 25.8669 275.548 26.2225 275.548 26.6616C275.548 27.076 275.712 27.3883 276.04 27.5986C276.368 27.8089 276.958 28.0099 277.812 28.2017C278.672 28.3934 279.368 28.6222 279.899 28.8882C280.431 29.1541 280.824 29.4757 281.078 29.853C281.337 30.2241 281.467 30.6787 281.467 31.2168C281.467 32.1136 281.109 32.8341 280.391 33.3784C279.674 33.9165 278.743 34.1855 277.599 34.1855C276.795 34.1855 276.083 34.0433 275.465 33.7588C274.846 33.4743 274.361 33.0785 274.008 32.5713C273.662 32.0579 273.489 31.5044 273.489 30.9106H275.205C275.236 31.4858 275.465 31.9435 275.892 32.2837C276.325 32.6177 276.894 32.7847 277.599 32.7847C278.248 32.7847 278.768 32.6548 279.157 32.395C279.553 32.1291 279.751 31.7765 279.751 31.3374ZM286.032 21.5312V23.9619H287.906V25.2886H286.032V31.5137C286.032 31.9157 286.115 32.2188 286.282 32.4229C286.449 32.6208 286.734 32.7197 287.136 32.7197C287.334 32.7197 287.606 32.6826 287.952 32.6084V34C287.501 34.1237 287.062 34.1855 286.635 34.1855C285.868 34.1855 285.29 33.9536 284.9 33.4897C284.51 33.0259 284.315 32.3672 284.315 31.5137V25.2886H282.488V23.9619H284.315V21.5312H286.032ZM294.771 25.502C294.511 25.4587 294.23 25.437 293.927 25.437C292.801 25.437 292.037 25.9163 291.635 26.875V34H289.919V23.9619H291.589L291.617 25.1216C292.18 24.2248 292.977 23.7764 294.01 23.7764C294.344 23.7764 294.598 23.8197 294.771 23.9062V25.502ZM295.717 28.8882C295.717 27.9048 295.909 27.0203 296.292 26.2349C296.682 25.4494 297.22 24.8433 297.907 24.4165C298.599 23.9897 299.388 23.7764 300.272 23.7764C301.639 23.7764 302.743 24.2495 303.584 25.1958C304.432 26.1421 304.855 27.4007 304.855 28.9717V29.0923C304.855 30.0695 304.667 30.9478 304.29 31.7271C303.918 32.5002 303.383 33.1032 302.685 33.5361C301.992 33.9691 301.194 34.1855 300.291 34.1855C298.93 34.1855 297.826 33.7124 296.979 32.7661C296.138 31.8198 295.717 30.5674 295.717 29.0088V28.8882ZM297.443 29.0923C297.443 30.2056 297.7 31.0993 298.213 31.7734C298.732 32.4476 299.425 32.7847 300.291 32.7847C301.163 32.7847 301.856 32.4445 302.369 31.7642C302.882 31.0776 303.139 30.119 303.139 28.8882C303.139 27.7873 302.876 26.8966 302.351 26.2163C301.831 25.5298 301.138 25.1865 300.272 25.1865C299.425 25.1865 298.742 25.5236 298.222 26.1978C297.703 26.8719 297.443 27.8368 297.443 29.0923ZM313.344 23.9619L313.4 25.2236C314.167 24.2588 315.169 23.7764 316.406 23.7764C318.527 23.7764 319.597 24.9731 319.616 27.3667V34H317.899V27.3574C317.893 26.6338 317.726 26.0988 317.398 25.7524C317.077 25.4061 316.573 25.2329 315.886 25.2329C315.33 25.2329 314.841 25.3813 314.42 25.6782C314 25.9751 313.672 26.3647 313.437 26.8472V34H311.721V23.9619H313.344ZM326.37 34.1855C325.009 34.1855 323.902 33.7402 323.048 32.8496C322.195 31.9528 321.768 30.756 321.768 29.2593V28.9438C321.768 27.9481 321.957 27.0605 322.334 26.2812C322.717 25.4958 323.249 24.8835 323.93 24.4443C324.616 23.999 325.358 23.7764 326.156 23.7764C327.461 23.7764 328.476 24.2062 329.199 25.0659C329.923 25.9256 330.285 27.1564 330.285 28.7583V29.4727H323.484C323.509 30.4622 323.797 31.2632 324.347 31.8755C324.904 32.4816 325.609 32.7847 326.462 32.7847C327.069 32.7847 327.582 32.661 328.002 32.4136C328.423 32.1662 328.791 31.8384 329.106 31.4302L330.155 32.2466C329.314 33.5392 328.052 34.1855 326.37 34.1855ZM326.156 25.1865C325.464 25.1865 324.882 25.4401 324.412 25.9473C323.942 26.4482 323.651 27.1533 323.54 28.0625H328.568V27.9326C328.519 27.0605 328.284 26.3864 327.863 25.9102C327.443 25.4277 326.874 25.1865 326.156 25.1865ZM338.477 33.0073C337.809 33.7928 336.828 34.1855 335.536 34.1855C334.466 34.1855 333.649 33.8763 333.086 33.2578C332.53 32.6331 332.248 31.7116 332.242 30.4932V23.9619H333.958V30.4468C333.958 31.9683 334.577 32.729 335.814 32.729C337.125 32.729 337.997 32.2404 338.43 31.2632V23.9619H340.146V34H338.514L338.477 33.0073ZM347.615 25.502C347.355 25.4587 347.074 25.437 346.771 25.437C345.645 25.437 344.881 25.9163 344.479 26.875V34H342.763V23.9619H344.433L344.46 25.1216C345.023 24.2248 345.821 23.7764 346.854 23.7764C347.188 23.7764 347.442 23.8197 347.615 23.9062V25.502ZM348.561 28.8882C348.561 27.9048 348.753 27.0203 349.136 26.2349C349.526 25.4494 350.064 24.8433 350.75 24.4165C351.443 23.9897 352.232 23.7764 353.116 23.7764C354.483 23.7764 355.587 24.2495 356.428 25.1958C357.276 26.1421 357.699 27.4007 357.699 28.9717V29.0923C357.699 30.0695 357.511 30.9478 357.133 31.7271C356.762 32.5002 356.227 33.1032 355.528 33.5361C354.836 33.9691 354.038 34.1855 353.135 34.1855C351.774 34.1855 350.67 33.7124 349.823 32.7661C348.982 31.8198 348.561 30.5674 348.561 29.0088V28.8882ZM350.287 29.0923C350.287 30.2056 350.543 31.0993 351.057 31.7734C351.576 32.4476 352.269 32.7847 353.135 32.7847C354.007 32.7847 354.7 32.4445 355.213 31.7642C355.726 31.0776 355.983 30.119 355.983 28.8882C355.983 27.7873 355.72 26.8966 355.194 26.2163C354.675 25.5298 353.982 25.1865 353.116 25.1865C352.269 25.1865 351.585 25.5236 351.066 26.1978C350.546 26.8719 350.287 27.8368 350.287 29.0923ZM361.475 23.9619L361.531 25.2236C362.298 24.2588 363.3 23.7764 364.537 23.7764C366.658 23.7764 367.728 24.9731 367.747 27.3667V34H366.03V27.3574C366.024 26.6338 365.857 26.0988 365.529 25.7524C365.208 25.4061 364.704 25.2329 364.017 25.2329C363.46 25.2329 362.972 25.3813 362.551 25.6782C362.131 25.9751 361.803 26.3647 361.568 26.8472V34H359.852V23.9619H361.475ZM374.5 34.1855C373.14 34.1855 372.033 33.7402 371.179 32.8496C370.326 31.9528 369.899 30.756 369.899 29.2593V28.9438C369.899 27.9481 370.088 27.0605 370.465 26.2812C370.848 25.4958 371.38 24.8835 372.061 24.4443C372.747 23.999 373.489 23.7764 374.287 23.7764C375.592 23.7764 376.606 24.2062 377.33 25.0659C378.054 25.9256 378.416 27.1564 378.416 28.7583V29.4727H371.615C371.64 30.4622 371.928 31.2632 372.478 31.8755C373.035 32.4816 373.74 32.7847 374.593 32.7847C375.199 32.7847 375.713 32.661 376.133 32.4136C376.554 32.1662 376.922 31.8384 377.237 31.4302L378.286 32.2466C377.444 33.5392 376.183 34.1855 374.5 34.1855ZM374.287 25.1865C373.594 25.1865 373.013 25.4401 372.543 25.9473C372.073 26.4482 371.782 27.1533 371.671 28.0625H376.699V27.9326C376.65 27.0605 376.415 26.3864 375.994 25.9102C375.574 25.4277 375.005 25.1865 374.287 25.1865ZM380.512 24.2959L379.538 23.6279C380.113 22.8239 380.41 21.9766 380.429 21.0859V19.75H382.126V20.9561C382.12 21.5745 381.966 22.193 381.663 22.8115C381.366 23.4238 380.982 23.9186 380.512 24.2959ZM383.36 24.2959L382.386 23.6279C382.961 22.8239 383.258 21.9766 383.277 21.0859V19.75H384.975V20.9561C384.968 21.5745 384.814 22.193 384.511 22.8115C384.214 23.4238 383.83 23.9186 383.36 24.2959Z" fill="black"/>
<path d="M56.9224 91.9619L56.978 93.2236C57.745 92.2588 58.7469 91.7764 59.9839 91.7764C62.1053 91.7764 63.1753 92.9731 63.1938 95.3667V102H61.4775V95.3574C61.4714 94.6338 61.3044 94.0988 60.9766 93.7524C60.6549 93.4061 60.1509 93.2329 59.4644 93.2329C58.9077 93.2329 58.4191 93.3813 57.9985 93.6782C57.578 93.9751 57.2502 94.3647 57.0151 94.8472V102H55.2988V91.9619H56.9224ZM71.2466 102H69.521V90.561L66.0605 91.832V90.2734L70.9775 88.4272H71.2466V102Z" fill="black"/>
<path d="M56.9126 231.962L56.9683 233.224C57.7352 232.259 58.7371 231.776 59.9741 231.776C62.0955 231.776 63.1655 232.973 63.1841 235.367V242H61.4678V235.357C61.4616 234.634 61.2946 234.099 60.9668 233.752C60.6452 233.406 60.1411 233.233 59.4546 233.233C58.8979 233.233 58.4093 233.381 57.9888 233.678C57.5682 233.975 57.2404 234.365 57.0054 234.847V242H55.2891V231.962H56.9126ZM74.4468 242H65.5962V240.766L70.272 235.571C70.9647 234.785 71.4409 234.148 71.7007 233.66C71.9666 233.165 72.0996 232.655 72.0996 232.129C72.0996 231.424 71.8862 230.846 71.4595 230.394C71.0327 229.943 70.4637 229.717 69.7524 229.717C68.8989 229.717 68.234 229.961 67.7578 230.45C67.2878 230.932 67.0527 231.606 67.0527 232.472H65.3364C65.3364 231.229 65.7354 230.224 66.5332 229.457C67.3372 228.69 68.4103 228.307 69.7524 228.307C71.008 228.307 72.0007 228.638 72.7305 229.299C73.4603 229.955 73.8252 230.83 73.8252 231.925C73.8252 233.255 72.9779 234.838 71.2832 236.675L67.665 240.599H74.4468V242Z" fill="black"/>
<path d="M280.913 231.962L280.968 233.224C281.735 232.259 282.737 231.776 283.974 231.776C286.096 231.776 287.166 232.973 287.184 235.367V242H285.468V235.357C285.462 234.634 285.295 234.099 284.967 233.752C284.645 233.406 284.141 233.233 283.455 233.233C282.898 233.233 282.409 233.381 281.989 233.678C281.568 233.975 281.24 234.365 281.005 234.847V242H279.289V231.962H280.913ZM291.396 231.962L291.452 233.224C292.219 232.259 293.221 231.776 294.458 231.776C296.579 231.776 297.649 232.973 297.667 235.367V242H295.951V235.357C295.945 234.634 295.778 234.099 295.45 233.752C295.129 233.406 294.625 233.233 293.938 233.233C293.381 233.233 292.893 233.381 292.472 233.678C292.052 233.975 291.724 234.365 291.489 234.847V242H289.772V231.962H291.396Z" fill="black"/>
<path d="M56.9126 371.962L56.9683 373.224C57.7352 372.259 58.7371 371.776 59.9741 371.776C62.0955 371.776 63.1655 372.973 63.1841 375.367V382H61.4678V375.357C61.4616 374.634 61.2946 374.099 60.9668 373.752C60.6452 373.406 60.1411 373.233 59.4546 373.233C58.8979 373.233 58.4093 373.381 57.9888 373.678C57.5682 373.975 57.2404 374.365 57.0054 374.847V382H55.2891V371.962H56.9126ZM68.0918 374.411H69.3813C70.1916 374.399 70.8286 374.185 71.2925 373.771C71.7563 373.357 71.9883 372.797 71.9883 372.092C71.9883 370.508 71.1997 369.717 69.6226 369.717C68.8804 369.717 68.2866 369.93 67.8413 370.357C67.4022 370.778 67.1826 371.337 67.1826 372.036H65.4663C65.4663 370.966 65.856 370.079 66.6353 369.374C67.4207 368.662 68.4165 368.307 69.6226 368.307C70.8966 368.307 71.8955 368.644 72.6191 369.318C73.3428 369.992 73.7046 370.929 73.7046 372.129C73.7046 372.716 73.5129 373.285 73.1294 373.836C72.7521 374.386 72.2357 374.798 71.5801 375.07C72.3223 375.305 72.8944 375.694 73.2964 376.239C73.7046 376.783 73.9087 377.448 73.9087 378.233C73.9087 379.446 73.5129 380.407 72.7212 381.119C71.9295 381.83 70.8997 382.186 69.6318 382.186C68.3639 382.186 67.3311 381.842 66.5332 381.156C65.7415 380.469 65.3457 379.563 65.3457 378.438H67.0713C67.0713 379.149 67.3032 379.718 67.7671 380.145C68.231 380.571 68.8525 380.785 69.6318 380.785C70.4606 380.785 71.0946 380.568 71.5337 380.135C71.9728 379.702 72.1924 379.081 72.1924 378.271C72.1924 377.485 71.9512 376.882 71.4688 376.461C70.9863 376.041 70.2905 375.824 69.3813 375.812H68.0918V374.411Z" fill="black"/>
<path d="M137.18 100.028C138.004 98.8994 138.946 97.925 140.004 97.1051C141.067 96.2887 142.209 95.6749 143.428 95.2636C144.648 94.8524 145.708 94.7072 146.607 94.8282L146.224 95.9501C145.086 95.9769 143.863 96.3932 142.555 97.199C141.251 98.0084 140.057 99.1084 138.973 100.499L138.5 101.13C137.092 103.058 136.222 104.989 135.89 106.921C135.694 108.08 135.714 109.113 135.948 110.019L135.045 110.658C134.65 109.803 134.468 108.721 134.499 107.41C134.56 104.851 135.454 102.39 137.18 100.028ZM148.984 109.363C148.083 110.597 147.075 111.384 145.96 111.726C144.845 112.068 143.805 111.887 142.841 111.183C141.857 110.464 141.311 109.587 141.203 108.55L138.352 112.453L136.966 111.441L145.163 100.218L146.429 101.143L145.84 102.092C146.915 101.805 147.954 102.028 148.958 102.761C149.932 103.472 150.433 104.401 150.461 105.548C150.494 106.698 150.033 107.927 149.077 109.236L148.984 109.363ZM147.713 108.193C148.381 107.279 148.713 106.415 148.71 105.601C148.707 104.787 148.366 104.132 147.687 103.636C146.848 103.023 145.947 102.936 144.984 103.373L142.155 107.247C142.029 108.289 142.394 109.121 143.248 109.745C143.912 110.231 144.631 110.353 145.403 110.113C146.184 109.872 146.954 109.232 147.713 108.193ZM152.27 117.84L150.877 116.823L157.624 107.585L154.08 106.571L154.999 105.312L160.059 106.721L160.276 106.88L152.27 117.84ZM162.851 118.894C162.038 120.008 161.11 120.969 160.067 121.778C159.033 122.585 157.899 123.2 156.663 123.623C155.433 124.049 154.355 124.204 153.429 124.087L153.755 123.027C154.955 122.999 156.239 122.536 157.609 121.636C158.986 120.736 160.233 119.532 161.348 118.026L161.523 117.787C162.29 116.738 162.891 115.684 163.328 114.624C163.769 113.559 164.052 112.526 164.179 111.524C164.312 110.525 164.279 109.647 164.081 108.89L164.992 108.257C165.385 109.103 165.566 110.17 165.537 111.458C165.512 112.75 165.272 114.018 164.815 115.262C164.363 116.51 163.709 117.721 162.851 118.894ZM175.355 128.625C174.454 129.858 173.446 130.646 172.331 130.988C171.215 131.33 170.176 131.149 169.212 130.445C168.228 129.726 167.682 128.849 167.573 127.812L164.722 131.715L163.336 130.703L171.534 119.48L172.8 120.405L172.211 121.353C173.286 121.066 174.325 121.289 175.329 122.023C176.303 122.734 176.804 123.663 176.832 124.809C176.865 125.959 176.404 127.189 175.448 128.497L175.355 128.625ZM174.084 127.455C174.752 126.541 175.084 125.677 175.081 124.863C175.078 124.049 174.737 123.394 174.058 122.898C173.219 122.285 172.318 122.197 171.355 122.635L168.526 126.508C168.4 127.55 168.765 128.383 169.619 129.007C170.283 129.492 171.001 129.615 171.774 129.375C172.555 129.134 173.325 128.494 174.084 127.455ZM177.483 136.486C176.384 135.683 175.753 134.671 175.589 133.448C175.428 132.221 175.79 131.002 176.672 129.794L176.859 129.539C177.446 128.735 178.122 128.129 178.886 127.723C179.659 127.315 180.45 127.134 181.258 127.181C182.075 127.226 182.806 127.484 183.45 127.954C184.504 128.724 185.069 129.67 185.147 130.791C185.224 131.912 184.79 133.119 183.845 134.413L183.424 134.989L177.933 130.978C177.369 131.792 177.129 132.609 177.212 133.428C177.304 134.245 177.695 134.906 178.384 135.409C178.873 135.767 179.361 135.97 179.846 136.018C180.332 136.066 180.822 136.019 181.318 135.875L181.683 137.153C180.241 137.701 178.841 137.478 177.483 136.486ZM182.618 129.093C182.059 128.685 181.44 128.546 180.761 128.679C180.086 128.806 179.435 129.204 178.809 129.872L182.87 132.838L182.946 132.733C183.421 132 183.629 131.317 183.57 130.684C183.515 130.047 183.198 129.516 182.618 129.093ZM188.655 141.119C188.928 140.745 188.997 140.351 188.862 139.938C188.736 139.524 188.375 138.985 187.78 138.321C187.191 137.66 186.765 137.074 186.504 136.561C186.247 136.052 186.125 135.58 186.137 135.144C186.154 134.712 186.308 134.297 186.6 133.897C187.085 133.233 187.775 132.875 188.67 132.824C189.57 132.777 190.457 133.073 191.331 133.711C192.25 134.382 192.821 135.163 193.044 136.054C193.272 136.948 193.116 137.764 192.576 138.503L191.182 137.485C191.46 137.106 191.536 136.66 191.412 136.148C191.293 135.64 190.989 135.207 190.5 134.85C189.995 134.481 189.52 134.303 189.075 134.315C188.63 134.327 188.278 134.51 188.019 134.865C187.774 135.199 187.722 135.548 187.863 135.911C188.004 136.274 188.362 136.785 188.938 137.443C189.519 138.105 189.946 138.7 190.219 139.229C190.492 139.757 190.619 140.249 190.601 140.703C190.592 141.156 190.429 141.6 190.112 142.034C189.583 142.758 188.868 143.129 187.968 143.145C187.071 143.156 186.16 142.825 185.237 142.15C184.587 141.675 184.097 141.141 183.765 140.546C183.434 139.952 183.275 139.346 183.289 138.728C183.312 138.11 183.499 137.56 183.849 137.081L185.235 138.093C184.921 138.576 184.836 139.081 184.98 139.607C185.132 140.132 185.493 140.602 186.063 141.018C186.587 141.401 187.083 141.603 187.551 141.623C188.028 141.642 188.396 141.474 188.655 141.119ZM192.924 141.204C193.504 140.41 194.18 139.809 194.953 139.401C195.731 138.997 196.523 138.824 197.329 138.885C198.14 138.949 198.903 139.242 199.617 139.763C200.721 140.569 201.333 141.603 201.454 142.863C201.58 144.127 201.18 145.393 200.254 146.662L200.182 146.759C199.606 147.548 198.936 148.146 198.171 148.553C197.416 148.958 196.628 149.13 195.808 149.067C194.994 149.008 194.222 148.712 193.492 148.18C192.394 147.377 191.781 146.344 191.655 145.08C191.534 143.82 191.933 142.56 192.852 141.302L192.924 141.204ZM194.197 142.387C193.54 143.286 193.22 144.159 193.237 145.006C193.259 145.857 193.619 146.538 194.319 147.049C195.023 147.563 195.783 147.697 196.599 147.45C197.418 147.199 198.191 146.576 198.917 145.582C199.566 144.693 199.879 143.819 199.856 142.959C199.841 142.099 199.485 141.413 198.785 140.902C198.101 140.402 197.35 140.271 196.533 140.509C195.716 140.747 194.937 141.373 194.197 142.387ZM210.063 147.623L209.364 148.675C210.553 148.348 211.646 148.55 212.645 149.279C214.358 150.531 214.516 152.128 213.12 154.072L209.207 159.428L207.821 158.416L211.739 153.052C212.161 152.464 212.342 151.934 212.281 151.46C212.226 150.991 211.921 150.554 211.366 150.149C210.917 149.821 210.435 149.652 209.92 149.644C209.405 149.636 208.911 149.757 208.436 150.008L204.217 155.784L202.832 154.772L208.752 146.666L210.063 147.623ZM215.71 164.178L214.316 163.16L221.063 153.923L217.519 152.908L218.439 151.65L223.498 153.059L223.715 153.218L215.71 164.178ZM229.574 168.067L225.918 165.396L226.744 164.265L230.4 166.935L229.574 168.067ZM238.996 168.757L238.297 169.808C239.485 169.481 240.579 169.683 241.578 170.413C243.291 171.664 243.449 173.261 242.052 175.205L238.14 180.562L236.754 179.549L240.672 174.185C241.094 173.597 241.274 173.067 241.214 172.594C241.159 172.124 240.854 171.687 240.299 171.282C239.85 170.954 239.368 170.786 238.853 170.777C238.338 170.769 237.844 170.89 237.369 171.141L233.15 176.917L231.764 175.905L237.685 167.799L238.996 168.757ZM247.462 174.94L246.763 175.992C247.951 175.665 249.045 175.866 250.044 176.596C251.757 177.847 251.915 179.445 250.518 181.389L246.605 186.745L245.219 185.733L249.137 180.369C249.559 179.781 249.74 179.25 249.68 178.777C249.624 178.308 249.319 177.871 248.765 177.466C248.315 177.137 247.833 176.969 247.319 176.961C246.804 176.952 246.309 177.074 245.835 177.325L241.616 183.101L240.23 182.088L246.151 173.982L247.462 174.94Z" fill="black"/>
<path d="M109.234 222.517C109.234 221.119 109.419 219.777 109.791 218.491C110.168 217.204 110.728 216.035 111.47 214.984C112.212 213.932 112.982 213.19 113.78 212.757L114.132 213.889C113.229 214.582 112.487 215.639 111.906 217.062C111.331 218.485 111.015 220.077 110.959 221.84L110.95 222.628C110.95 225.016 111.386 227.088 112.258 228.844C112.784 229.896 113.409 230.718 114.132 231.312L113.78 232.36C112.957 231.903 112.172 231.136 111.423 230.06C109.964 227.957 109.234 225.443 109.234 222.517ZM124.272 223.092C124.272 224.62 123.923 225.851 123.224 226.785C122.525 227.719 121.579 228.186 120.385 228.186C119.167 228.186 118.208 227.799 117.509 227.026V231.859H115.793V217.962H117.361L117.444 219.075C118.143 218.209 119.114 217.776 120.357 217.776C121.563 217.776 122.516 218.231 123.215 219.14C123.92 220.049 124.272 221.314 124.272 222.935V223.092ZM122.556 222.897C122.556 221.766 122.315 220.872 121.833 220.216C121.35 219.561 120.688 219.233 119.847 219.233C118.808 219.233 118.029 219.694 117.509 220.615V225.412C118.023 226.327 118.808 226.785 119.866 226.785C120.688 226.785 121.341 226.46 121.823 225.811C122.312 225.155 122.556 224.184 122.556 222.897ZM135.136 228H126.286V226.766L130.961 221.571C131.654 220.785 132.13 220.148 132.39 219.66C132.656 219.165 132.789 218.655 132.789 218.129C132.789 217.424 132.576 216.846 132.149 216.394C131.722 215.943 131.153 215.717 130.442 215.717C129.588 215.717 128.924 215.961 128.447 216.45C127.977 216.932 127.742 217.606 127.742 218.472H126.026C126.026 217.229 126.425 216.224 127.223 215.457C128.027 214.69 129.1 214.307 130.442 214.307C131.697 214.307 132.69 214.638 133.42 215.299C134.15 215.955 134.515 216.83 134.515 217.925C134.515 219.255 133.667 220.838 131.973 222.675L128.354 226.599H135.136V228ZM141.092 222.61C141.092 223.989 140.91 225.313 140.545 226.581C140.186 227.842 139.633 229.008 138.884 230.078C138.142 231.148 137.363 231.909 136.546 232.36L136.185 231.312C137.137 230.582 137.901 229.45 138.476 227.917C139.057 226.376 139.354 224.669 139.367 222.795V222.499C139.367 221.2 139.231 219.994 138.958 218.88C138.686 217.761 138.306 216.759 137.817 215.875C137.335 214.99 136.791 214.3 136.185 213.806L136.546 212.757C137.363 213.209 138.139 213.963 138.875 215.021C139.617 216.079 140.171 217.244 140.536 218.519C140.907 219.793 141.092 221.156 141.092 222.61ZM152.216 223.092C152.216 224.62 151.866 225.851 151.167 226.785C150.469 227.719 149.522 228.186 148.329 228.186C147.11 228.186 146.152 227.799 145.453 227.026V231.859H143.736V217.962H145.304L145.388 219.075C146.087 218.209 147.058 217.776 148.301 217.776C149.507 217.776 150.459 218.231 151.158 219.14C151.863 220.049 152.216 221.314 152.216 222.935V223.092ZM150.5 222.897C150.5 221.766 150.258 220.872 149.776 220.216C149.293 219.561 148.632 219.233 147.791 219.233C146.751 219.233 145.972 219.694 145.453 220.615V225.412C145.966 226.327 146.751 226.785 147.809 226.785C148.632 226.785 149.284 226.46 149.767 225.811C150.255 225.155 150.5 224.184 150.5 222.897ZM158.571 228.186C157.21 228.186 156.103 227.74 155.25 226.85C154.396 225.953 153.969 224.756 153.969 223.259V222.944C153.969 221.948 154.158 221.061 154.535 220.281C154.919 219.496 155.451 218.883 156.131 218.444C156.817 217.999 157.56 217.776 158.357 217.776C159.662 217.776 160.677 218.206 161.4 219.066C162.124 219.926 162.486 221.156 162.486 222.758V223.473H155.686C155.71 224.462 155.998 225.263 156.548 225.875C157.105 226.482 157.81 226.785 158.664 226.785C159.27 226.785 159.783 226.661 160.204 226.414C160.624 226.166 160.992 225.838 161.308 225.43L162.356 226.247C161.515 227.539 160.253 228.186 158.571 228.186ZM158.357 219.187C157.665 219.187 157.083 219.44 156.613 219.947C156.143 220.448 155.853 221.153 155.741 222.062H160.77V221.933C160.72 221.061 160.485 220.386 160.064 219.91C159.644 219.428 159.075 219.187 158.357 219.187ZM170.325 225.337C170.325 224.874 170.149 224.515 169.796 224.261C169.45 224.001 168.841 223.779 167.969 223.593C167.103 223.408 166.413 223.185 165.9 222.925C165.393 222.666 165.015 222.356 164.768 221.998C164.527 221.639 164.406 221.212 164.406 220.717C164.406 219.895 164.753 219.199 165.445 218.63C166.144 218.061 167.035 217.776 168.117 217.776C169.255 217.776 170.177 218.07 170.882 218.658C171.593 219.245 171.949 219.997 171.949 220.912H170.223C170.223 220.442 170.022 220.037 169.62 219.697C169.224 219.357 168.723 219.187 168.117 219.187C167.493 219.187 167.004 219.323 166.651 219.595C166.299 219.867 166.123 220.222 166.123 220.662C166.123 221.076 166.286 221.388 166.614 221.599C166.942 221.809 167.533 222.01 168.386 222.202C169.246 222.393 169.942 222.622 170.474 222.888C171.006 223.154 171.398 223.476 171.652 223.853C171.912 224.224 172.042 224.679 172.042 225.217C172.042 226.114 171.683 226.834 170.965 227.378C170.248 227.917 169.317 228.186 168.173 228.186C167.369 228.186 166.658 228.043 166.039 227.759C165.421 227.474 164.935 227.078 164.583 226.571C164.236 226.058 164.063 225.504 164.063 224.911H165.779C165.81 225.486 166.039 225.944 166.466 226.284C166.899 226.618 167.468 226.785 168.173 226.785C168.822 226.785 169.342 226.655 169.731 226.395C170.127 226.129 170.325 225.777 170.325 225.337ZM173.823 222.888C173.823 221.905 174.014 221.02 174.398 220.235C174.788 219.449 175.326 218.843 176.012 218.417C176.705 217.99 177.493 217.776 178.378 217.776C179.745 217.776 180.849 218.25 181.69 219.196C182.537 220.142 182.961 221.401 182.961 222.972V223.092C182.961 224.069 182.772 224.948 182.395 225.727C182.024 226.5 181.489 227.103 180.79 227.536C180.097 227.969 179.299 228.186 178.396 228.186C177.036 228.186 175.932 227.712 175.084 226.766C174.243 225.82 173.823 224.567 173.823 223.009V222.888ZM175.548 223.092C175.548 224.206 175.805 225.099 176.318 225.773C176.838 226.448 177.531 226.785 178.396 226.785C179.269 226.785 179.961 226.444 180.475 225.764C180.988 225.078 181.245 224.119 181.245 222.888C181.245 221.787 180.982 220.897 180.456 220.216C179.937 219.53 179.244 219.187 178.378 219.187C177.531 219.187 176.847 219.524 176.328 220.198C175.808 220.872 175.548 221.837 175.548 223.092ZM191.45 217.962L191.505 219.224C192.272 218.259 193.274 217.776 194.511 217.776C196.633 217.776 197.703 218.973 197.721 221.367V228H196.005V221.357C195.999 220.634 195.832 220.099 195.504 219.752C195.182 219.406 194.678 219.233 193.992 219.233C193.435 219.233 192.946 219.381 192.526 219.678C192.105 219.975 191.778 220.365 191.542 220.847V228H189.826V217.962H191.45ZM208.984 228H200.133V226.766L204.809 221.571C205.502 220.785 205.978 220.148 206.238 219.66C206.504 219.165 206.637 218.655 206.637 218.129C206.637 217.424 206.423 216.846 205.997 216.394C205.57 215.943 205.001 215.717 204.29 215.717C203.436 215.717 202.771 215.961 202.295 216.45C201.825 216.932 201.59 217.606 201.59 218.472H199.874C199.874 217.229 200.272 216.224 201.07 215.457C201.874 214.69 202.947 214.307 204.29 214.307C205.545 214.307 206.538 214.638 207.268 215.299C207.997 215.955 208.362 216.83 208.362 217.925C208.362 219.255 207.515 220.838 205.82 222.675L202.202 226.599H208.984V228ZM219.263 222.962H214.736V221.562H219.263V222.962ZM227.279 217.962L227.334 219.224C228.101 218.259 229.103 217.776 230.34 217.776C232.462 217.776 233.532 218.973 233.55 221.367V228H231.834V221.357C231.828 220.634 231.661 220.099 231.333 219.752C231.011 219.406 230.507 219.233 229.821 219.233C229.264 219.233 228.776 219.381 228.355 219.678C227.934 219.975 227.607 220.365 227.372 220.847V228H225.655V217.962H227.279ZM237.762 217.962L237.818 219.224C238.585 218.259 239.587 217.776 240.824 217.776C242.945 217.776 244.015 218.973 244.034 221.367V228H242.317V221.357C242.311 220.634 242.144 220.099 241.816 219.752C241.495 219.406 240.991 219.233 240.304 219.233C239.748 219.233 239.259 219.381 238.838 219.678C238.418 219.975 238.09 220.365 237.855 220.847V228H236.139V217.962H237.762Z" fill="black"/>
<path d="M121.52 346.955C120.731 345.801 120.127 344.589 119.707 343.318C119.292 342.043 119.094 340.762 119.113 339.475C119.132 338.188 119.349 337.141 119.763 336.333L120.693 337.068C120.338 338.15 120.323 339.442 120.646 340.944C120.974 342.443 121.613 343.936 122.562 345.422L123 346.078C124.347 348.049 125.877 349.513 127.588 350.47C128.616 351.042 129.596 351.368 130.528 351.449L130.829 352.514C129.892 352.6 128.81 352.411 127.585 351.945C125.193 351.033 123.172 349.37 121.52 346.955ZM134.258 338.94C135.12 340.201 135.527 341.415 135.477 342.58C135.427 343.745 134.91 344.665 133.925 345.339C132.919 346.027 131.909 346.249 130.896 346.005L133.625 349.995L132.208 350.964L124.363 339.493L125.657 338.607L126.354 339.479C126.442 338.37 126.999 337.464 128.025 336.763C129.021 336.082 130.064 335.919 131.154 336.275C132.249 336.628 133.254 337.473 134.169 338.81L134.258 338.94ZM132.731 339.749C132.092 338.814 131.389 338.213 130.62 337.944C129.852 337.675 129.121 337.778 128.427 338.253C127.569 338.84 127.186 339.66 127.277 340.714L129.985 344.673C130.925 345.139 131.832 345.073 132.705 344.476C133.384 344.012 133.739 343.375 133.771 342.567C133.804 341.75 133.458 340.81 132.731 339.749ZM136.466 334.182L137.53 333.454C138.192 332.986 138.598 332.451 138.747 331.847C138.896 331.243 138.771 330.65 138.373 330.068C137.479 328.761 136.381 328.553 135.08 329.443C134.467 329.862 134.097 330.373 133.971 330.977C133.846 331.572 133.98 332.158 134.375 332.735L132.958 333.704C132.354 332.821 132.175 331.868 132.42 330.846C132.667 329.816 133.288 328.96 134.283 328.279C135.335 327.56 136.35 327.274 137.328 327.422C138.306 327.57 139.133 328.139 139.811 329.13C140.142 329.615 140.305 330.193 140.299 330.863C140.299 331.531 140.105 332.162 139.717 332.757C140.462 332.532 141.155 332.53 141.794 332.753C142.438 332.971 142.982 333.405 143.425 334.053C144.109 335.054 144.326 336.071 144.074 337.105C143.822 338.139 143.173 339.014 142.126 339.73C141.079 340.446 140.033 340.745 138.987 340.629C137.946 340.509 137.108 339.985 136.472 339.056L137.897 338.082C138.298 338.669 138.811 339.007 139.435 339.098C140.058 339.188 140.692 339.013 141.335 338.574C142.019 338.106 142.42 337.569 142.538 336.964C142.656 336.359 142.487 335.722 142.029 335.053C141.586 334.404 141.046 334.043 140.411 333.968C139.775 333.893 139.079 334.107 138.321 334.61L137.257 335.338L136.466 334.182ZM147.869 329.047C148.648 330.186 149.244 331.381 149.659 332.634C150.075 333.878 150.276 335.152 150.262 336.458C150.254 337.76 150.04 338.828 149.621 339.662L148.731 339.001C149.105 337.86 149.096 336.495 148.705 334.904C148.316 333.305 147.597 331.728 146.549 330.174L146.382 329.929C145.649 328.857 144.855 327.939 144.002 327.173C143.146 326.403 142.266 325.791 141.364 325.336C140.466 324.879 139.628 324.617 138.848 324.55L138.555 323.481C139.484 323.393 140.55 323.577 141.755 324.035C142.964 324.489 144.08 325.139 145.1 325.984C146.126 326.827 147.049 327.847 147.869 329.047ZM157.323 323.166C158.185 324.427 158.592 325.64 158.542 326.806C158.492 327.971 157.975 328.891 156.99 329.564C155.984 330.252 154.974 330.474 153.961 330.231L156.69 334.22L155.273 335.189L147.428 323.718L148.722 322.833L149.419 323.705C149.507 322.595 150.064 321.69 151.09 320.988C152.086 320.307 153.129 320.145 154.219 320.501C155.314 320.853 156.319 321.698 157.234 323.036L157.323 323.166ZM155.796 323.974C155.157 323.04 154.454 322.438 153.685 322.169C152.917 321.901 152.186 322.004 151.492 322.478C150.634 323.065 150.251 323.885 150.342 324.939L153.05 328.898C153.99 329.364 154.897 329.298 155.77 328.701C156.449 328.237 156.804 327.601 156.836 326.792C156.869 325.975 156.523 325.036 155.796 323.974ZM165.444 323.783C164.321 324.551 163.155 324.808 161.948 324.555C160.737 324.296 159.709 323.549 158.865 322.314L158.686 322.054C158.124 321.232 157.779 320.393 157.651 319.536C157.524 318.672 157.617 317.866 157.931 317.119C158.246 316.364 158.733 315.761 159.391 315.311C160.469 314.574 161.549 314.357 162.631 314.658C163.714 314.959 164.707 315.77 165.612 317.093L166.015 317.682L160.402 321.521C160.981 322.324 161.67 322.823 162.47 323.017C163.272 323.204 164.025 323.056 164.73 322.574C165.23 322.232 165.584 321.84 165.791 321.398C165.999 320.957 166.117 320.478 166.147 319.963L167.474 320.045C167.509 321.587 166.832 322.833 165.444 323.783ZM160.188 316.475C159.616 316.866 159.279 317.404 159.177 318.088C159.072 318.766 159.23 319.512 159.652 320.326L163.802 317.487L163.729 317.38C163.196 316.688 162.621 316.264 162.005 316.109C161.386 315.948 160.78 316.07 160.188 316.475ZM173.538 314.796C173.276 314.413 172.928 314.217 172.494 314.206C172.062 314.187 171.433 314.347 170.609 314.687C169.789 315.022 169.094 315.228 168.524 315.303C167.959 315.375 167.473 315.333 167.066 315.176C166.664 315.016 166.324 314.732 166.044 314.324C165.58 313.645 165.473 312.875 165.724 312.014C165.979 311.15 166.554 310.412 167.447 309.801C168.387 309.159 169.313 308.881 170.227 308.968C171.146 309.052 171.863 309.471 172.38 310.227L170.956 311.201C170.691 310.813 170.296 310.592 169.772 310.538C169.253 310.481 168.744 310.623 168.243 310.965C167.728 311.318 167.401 311.706 167.264 312.13C167.127 312.553 167.182 312.947 167.43 313.309C167.664 313.651 167.975 313.816 168.365 313.805C168.754 313.793 169.355 313.626 170.168 313.302C170.985 312.975 171.689 312.771 172.278 312.691C172.867 312.61 173.373 312.654 173.795 312.822C174.219 312.982 174.583 313.283 174.887 313.728C175.393 314.468 175.504 315.265 175.219 316.119C174.93 316.969 174.314 317.716 173.369 318.362C172.706 318.816 172.038 319.1 171.367 319.214C170.696 319.329 170.072 319.276 169.495 319.056C168.919 318.828 168.464 318.469 168.128 317.979L169.545 317.01C169.895 317.467 170.343 317.716 170.887 317.756C171.433 317.787 171.997 317.604 172.579 317.206C173.115 316.839 173.47 316.439 173.645 316.004C173.822 315.561 173.786 315.158 173.538 314.796ZM175.043 310.8C174.487 309.988 174.146 309.15 174.02 308.285C173.898 307.417 174 306.613 174.325 305.873C174.656 305.13 175.187 304.508 175.917 304.009C177.045 303.237 178.223 303.005 179.452 303.311C180.686 303.614 181.746 304.414 182.633 305.71L182.701 305.81C183.252 306.616 183.592 307.448 183.721 308.304C183.851 309.152 183.75 309.951 183.417 310.703C183.09 311.452 182.554 312.081 181.808 312.591C180.685 313.359 179.507 313.591 178.273 313.289C177.045 312.982 175.991 312.186 175.111 310.9L175.043 310.8ZM176.582 309.994C177.211 310.913 177.927 311.506 178.731 311.773C179.541 312.036 180.303 311.923 181.017 311.434C181.737 310.942 182.117 310.27 182.157 309.419C182.193 308.562 181.864 307.626 181.169 306.61C180.547 305.701 179.828 305.115 179.01 304.85C178.193 304.577 177.428 304.684 176.713 305.173C176.013 305.651 175.64 306.315 175.591 307.165C175.543 308.015 175.873 308.958 176.582 309.994ZM186.811 296.783L187.569 297.793C187.658 296.564 188.213 295.6 189.234 294.902C190.985 293.704 192.543 294.088 193.91 296.053L197.655 301.528L196.238 302.497L192.488 297.014C192.074 296.42 191.635 296.073 191.168 295.972C190.707 295.868 190.194 296.01 189.627 296.397C189.168 296.711 188.848 297.11 188.668 297.592C188.489 298.075 188.438 298.581 188.517 299.112L192.555 305.016L191.138 305.985L185.471 297.7L186.811 296.783ZM197.421 292.494L198.486 291.766C199.148 291.298 199.553 290.762 199.702 290.159C199.851 289.555 199.726 288.962 199.328 288.38C198.435 287.073 197.337 286.865 196.035 287.755C195.422 288.174 195.053 288.685 194.926 289.289C194.801 289.884 194.936 290.47 195.33 291.047L193.914 292.016C193.31 291.132 193.13 290.18 193.375 289.158C193.622 288.127 194.243 287.272 195.239 286.591C196.291 285.872 197.305 285.586 198.283 285.734C199.261 285.882 200.089 286.451 200.766 287.441C201.098 287.926 201.261 288.504 201.255 289.175C201.254 289.843 201.06 290.474 200.673 291.068C201.418 290.843 202.11 290.842 202.749 291.064C203.393 291.283 203.937 291.717 204.381 292.365C205.065 293.366 205.281 294.383 205.029 295.417C204.777 296.451 204.128 297.326 203.081 298.042C202.035 298.757 200.989 299.057 199.942 298.941C198.901 298.821 198.063 298.297 197.428 297.367L198.852 296.393C199.254 296.98 199.766 297.319 200.39 297.41C201.014 297.5 201.647 297.325 202.291 296.885C202.975 296.417 203.376 295.881 203.494 295.276C203.612 294.67 203.442 294.033 202.985 293.365C202.541 292.716 202.002 292.355 201.366 292.28C200.731 292.205 200.034 292.419 199.277 292.922L198.212 293.65L197.421 292.494ZM212.592 285.209L208.855 287.765L208.064 286.609L211.801 284.053L212.592 285.209ZM216.385 276.557L217.144 277.567C217.232 276.338 217.787 275.374 218.808 274.675C220.559 273.478 222.118 273.862 223.484 275.827L227.229 281.302L225.812 282.271L222.062 276.788C221.649 276.194 221.209 275.847 220.743 275.746C220.282 275.642 219.768 275.783 219.201 276.171C218.742 276.485 218.422 276.884 218.243 277.366C218.063 277.848 218.012 278.355 218.091 278.886L222.129 284.79L220.712 285.759L215.045 277.473L216.385 276.557ZM225.039 270.639L225.797 271.649C225.885 270.419 226.44 269.456 227.461 268.757C229.212 267.56 230.771 267.944 232.137 269.909L235.882 275.384L234.465 276.353L230.715 270.87C230.302 270.276 229.862 269.929 229.396 269.828C228.935 269.724 228.421 269.865 227.854 270.253C227.395 270.567 227.075 270.965 226.896 271.448C226.716 271.93 226.666 272.437 226.744 272.968L230.782 278.872L229.365 279.841L223.698 271.555L225.039 270.639Z" fill="black"/>
<path d="M289.354 282.646C289.158 282.451 288.842 282.451 288.646 282.646L285.464 285.828C285.269 286.024 285.269 286.34 285.464 286.536C285.66 286.731 285.976 286.731 286.172 286.536L289 283.707L291.828 286.536C292.024 286.731 292.34 286.731 292.536 286.536C292.731 286.34 292.731 286.024 292.536 285.828L289.354 282.646ZM289.5 347V283H288.5V347H289.5Z" fill="black"/>
<path d="M272.464 366.186C271.104 366.186 269.997 365.74 269.143 364.85C268.29 363.953 267.863 362.756 267.863 361.259V360.944C267.863 359.948 268.051 359.061 268.429 358.281C268.812 357.496 269.344 356.883 270.024 356.444C270.711 355.999 271.453 355.776 272.251 355.776C273.556 355.776 274.57 356.206 275.294 357.066C276.018 357.926 276.379 359.156 276.379 360.758V361.473H269.579C269.604 362.462 269.891 363.263 270.442 363.875C270.999 364.482 271.704 364.785 272.557 364.785C273.163 364.785 273.677 364.661 274.097 364.414C274.518 364.166 274.886 363.838 275.201 363.43L276.25 364.247C275.408 365.539 274.147 366.186 272.464 366.186ZM272.251 357.187C271.558 357.187 270.977 357.44 270.507 357.947C270.037 358.448 269.746 359.153 269.635 360.062H274.663V359.933C274.614 359.061 274.379 358.386 273.958 357.91C273.537 357.428 272.968 357.187 272.251 357.187ZM283.226 357.502C282.966 357.459 282.685 357.437 282.382 357.437C281.256 357.437 280.492 357.916 280.09 358.875V366H278.374V355.962H280.044L280.072 357.122C280.635 356.225 281.432 355.776 282.465 355.776C282.799 355.776 283.053 355.82 283.226 355.906V357.502ZM289.665 357.502C289.405 357.459 289.123 357.437 288.82 357.437C287.695 357.437 286.931 357.916 286.529 358.875V366H284.812V355.962H286.482L286.51 357.122C287.073 356.225 287.871 355.776 288.904 355.776C289.238 355.776 289.491 355.82 289.665 355.906V357.502ZM290.611 360.888C290.611 359.905 290.803 359.02 291.186 358.235C291.576 357.449 292.114 356.843 292.8 356.417C293.493 355.99 294.282 355.776 295.166 355.776C296.533 355.776 297.637 356.25 298.478 357.196C299.325 358.142 299.749 359.401 299.749 360.972V361.092C299.749 362.069 299.56 362.948 299.183 363.727C298.812 364.5 298.277 365.103 297.578 365.536C296.885 365.969 296.088 366.186 295.185 366.186C293.824 366.186 292.72 365.712 291.873 364.766C291.031 363.82 290.611 362.567 290.611 361.009V360.888ZM292.336 361.092C292.336 362.206 292.593 363.099 293.106 363.773C293.626 364.448 294.319 364.785 295.185 364.785C296.057 364.785 296.749 364.444 297.263 363.764C297.776 363.078 298.033 362.119 298.033 360.888C298.033 359.787 297.77 358.897 297.244 358.216C296.725 357.53 296.032 357.187 295.166 357.187C294.319 357.187 293.635 357.524 293.116 358.198C292.596 358.872 292.336 359.837 292.336 361.092ZM306.753 357.502C306.494 357.459 306.212 357.437 305.909 357.437C304.784 357.437 304.02 357.916 303.618 358.875V366H301.901V355.962H303.571L303.599 357.122C304.162 356.225 304.96 355.776 305.993 355.776C306.327 355.776 306.58 355.82 306.753 355.906V357.502ZM312.32 366.186C310.959 366.186 309.852 365.74 308.999 364.85C308.145 363.953 307.718 362.756 307.718 361.259V360.944C307.718 359.948 307.907 359.061 308.284 358.281C308.668 357.496 309.2 356.883 309.88 356.444C310.566 355.999 311.309 355.776 312.106 355.776C313.411 355.776 314.426 356.206 315.149 357.066C315.873 357.926 316.235 359.156 316.235 360.758V361.473H309.435C309.459 362.462 309.747 363.263 310.297 363.875C310.854 364.482 311.559 364.785 312.413 364.785C313.019 364.785 313.532 364.661 313.953 364.414C314.373 364.166 314.741 363.838 315.057 363.43L316.105 364.247C315.264 365.539 314.002 366.186 312.32 366.186ZM312.106 357.187C311.414 357.187 310.832 357.44 310.362 357.947C309.892 358.448 309.602 359.153 309.49 360.062H314.519V359.933C314.469 359.061 314.234 358.386 313.813 357.91C313.393 357.428 312.824 357.187 312.106 357.187ZM274.144 385.337C274.144 384.874 273.967 384.515 273.615 384.261C273.268 384.001 272.659 383.779 271.787 383.593C270.921 383.408 270.232 383.185 269.718 382.925C269.211 382.666 268.834 382.356 268.586 381.998C268.345 381.639 268.225 381.212 268.225 380.717C268.225 379.895 268.571 379.199 269.264 378.63C269.963 378.061 270.853 377.776 271.936 377.776C273.074 377.776 273.995 378.07 274.7 378.658C275.411 379.245 275.767 379.997 275.767 380.912H274.042C274.042 380.442 273.84 380.037 273.438 379.697C273.043 379.357 272.542 379.187 271.936 379.187C271.311 379.187 270.822 379.323 270.47 379.595C270.117 379.867 269.941 380.222 269.941 380.662C269.941 381.076 270.105 381.388 270.433 381.599C270.76 381.809 271.351 382.01 272.205 382.202C273.064 382.393 273.76 382.622 274.292 382.888C274.824 383.154 275.217 383.476 275.47 383.853C275.73 384.224 275.86 384.679 275.86 385.217C275.86 386.114 275.501 386.834 274.784 387.378C274.066 387.917 273.135 388.186 271.991 388.186C271.187 388.186 270.476 388.043 269.857 387.759C269.239 387.474 268.753 387.078 268.401 386.571C268.055 386.058 267.881 385.504 267.881 384.911H269.598C269.629 385.486 269.857 385.944 270.284 386.284C270.717 386.618 271.286 386.785 271.991 386.785C272.641 386.785 273.16 386.655 273.55 386.395C273.946 386.129 274.144 385.777 274.144 385.337ZM280.424 375.531V377.962H282.298V379.289H280.424V385.514C280.424 385.916 280.508 386.219 280.675 386.423C280.842 386.621 281.126 386.72 281.528 386.72C281.726 386.72 281.998 386.683 282.345 386.608V388C281.893 388.124 281.454 388.186 281.027 388.186C280.26 388.186 279.682 387.954 279.292 387.49C278.903 387.026 278.708 386.367 278.708 385.514V379.289H276.88V377.962H278.708V375.531H280.424ZM290.509 388C290.41 387.802 290.329 387.45 290.268 386.942C289.47 387.771 288.517 388.186 287.41 388.186C286.421 388.186 285.607 387.907 284.97 387.351C284.339 386.788 284.024 386.076 284.024 385.217C284.024 384.172 284.42 383.361 285.211 382.786C286.009 382.205 287.129 381.914 288.57 381.914H290.24V381.125C290.24 380.526 290.06 380.049 289.702 379.697C289.343 379.338 288.814 379.159 288.115 379.159C287.503 379.159 286.99 379.313 286.575 379.623C286.161 379.932 285.954 380.306 285.954 380.745H284.228C284.228 380.244 284.404 379.762 284.757 379.298C285.116 378.828 285.598 378.457 286.204 378.185C286.816 377.912 287.487 377.776 288.217 377.776C289.374 377.776 290.28 378.067 290.936 378.648C291.591 379.224 291.931 380.018 291.956 381.033V385.653C291.956 386.574 292.074 387.307 292.309 387.852V388H290.509ZM287.661 386.692C288.199 386.692 288.709 386.553 289.191 386.274C289.674 385.996 290.023 385.634 290.24 385.189V383.129H288.895C286.792 383.129 285.74 383.745 285.74 384.976C285.74 385.514 285.92 385.934 286.278 386.237C286.637 386.54 287.098 386.692 287.661 386.692ZM296.975 375.531V377.962H298.849V379.289H296.975V385.514C296.975 385.916 297.059 386.219 297.226 386.423C297.393 386.621 297.677 386.72 298.079 386.72C298.277 386.72 298.549 386.683 298.896 386.608V388C298.444 388.124 298.005 388.186 297.578 388.186C296.811 388.186 296.233 387.954 295.843 387.49C295.454 387.026 295.259 386.367 295.259 385.514V379.289H293.431V377.962H295.259V375.531H296.975ZM302.727 388H301.011V377.962H302.727V388ZM300.872 375.299C300.872 375.021 300.955 374.786 301.122 374.594C301.295 374.403 301.549 374.307 301.883 374.307C302.217 374.307 302.47 374.403 302.644 374.594C302.817 374.786 302.903 375.021 302.903 375.299C302.903 375.578 302.817 375.81 302.644 375.995C302.47 376.181 302.217 376.273 301.883 376.273C301.549 376.273 301.295 376.181 301.122 375.995C300.955 375.81 300.872 375.578 300.872 375.299ZM311.327 385.337C311.327 384.874 311.151 384.515 310.798 384.261C310.452 384.001 309.843 383.779 308.971 383.593C308.105 383.408 307.415 383.185 306.902 382.925C306.395 382.666 306.017 382.356 305.77 381.998C305.529 381.639 305.408 381.212 305.408 380.717C305.408 379.895 305.755 379.199 306.447 378.63C307.146 378.061 308.037 377.776 309.119 377.776C310.257 377.776 311.179 378.07 311.884 378.658C312.595 379.245 312.951 379.997 312.951 380.912H311.225C311.225 380.442 311.024 380.037 310.622 379.697C310.226 379.357 309.725 379.187 309.119 379.187C308.494 379.187 308.006 379.323 307.653 379.595C307.301 379.867 307.125 380.222 307.125 380.662C307.125 381.076 307.288 381.388 307.616 381.599C307.944 381.809 308.535 382.01 309.388 382.202C310.248 382.393 310.944 382.622 311.476 382.888C312.007 383.154 312.4 383.476 312.654 383.853C312.914 384.224 313.043 384.679 313.043 385.217C313.043 386.114 312.685 386.834 311.967 387.378C311.25 387.917 310.319 388.186 309.175 388.186C308.371 388.186 307.66 388.043 307.041 387.759C306.423 387.474 305.937 387.078 305.584 386.571C305.238 386.058 305.065 385.504 305.065 384.911H306.781C306.812 385.486 307.041 385.944 307.468 386.284C307.901 386.618 308.47 386.785 309.175 386.785C309.824 386.785 310.344 386.655 310.733 386.395C311.129 386.129 311.327 385.777 311.327 385.337ZM317.608 375.531V377.962H319.482V379.289H317.608V385.514C317.608 385.916 317.691 386.219 317.858 386.423C318.025 386.621 318.31 386.72 318.712 386.72C318.91 386.72 319.182 386.683 319.528 386.608V388C319.077 388.124 318.638 388.186 318.211 388.186C317.444 388.186 316.866 387.954 316.476 387.49C316.086 387.026 315.892 386.367 315.892 385.514V379.289H314.064V377.962H315.892V375.531H317.608ZM323.36 388H321.644V377.962H323.36V388ZM321.504 375.299C321.504 375.021 321.588 374.786 321.755 374.594C321.928 374.403 322.182 374.307 322.516 374.307C322.85 374.307 323.103 374.403 323.276 374.594C323.45 374.786 323.536 375.021 323.536 375.299C323.536 375.578 323.45 375.81 323.276 375.995C323.103 376.181 322.85 376.273 322.516 376.273C322.182 376.273 321.928 376.181 321.755 375.995C321.588 375.81 321.504 375.578 321.504 375.299ZM330.142 386.785C330.754 386.785 331.289 386.599 331.747 386.228C332.204 385.857 332.458 385.393 332.507 384.836H334.131C334.1 385.412 333.902 385.959 333.537 386.479C333.172 386.998 332.684 387.412 332.071 387.722C331.465 388.031 330.822 388.186 330.142 388.186C328.775 388.186 327.686 387.731 326.876 386.822C326.072 385.906 325.67 384.657 325.67 383.074V382.786C325.67 381.809 325.849 380.94 326.208 380.179C326.567 379.418 327.08 378.828 327.748 378.407C328.422 377.987 329.217 377.776 330.132 377.776C331.258 377.776 332.192 378.113 332.934 378.788C333.682 379.462 334.081 380.337 334.131 381.413H332.507C332.458 380.764 332.21 380.232 331.765 379.817C331.326 379.397 330.782 379.187 330.132 379.187C329.26 379.187 328.583 379.502 328.101 380.133C327.624 380.757 327.386 381.664 327.386 382.851V383.176C327.386 384.332 327.624 385.223 328.101 385.848C328.577 386.472 329.257 386.785 330.142 386.785ZM335.606 382.888C335.606 381.905 335.798 381.02 336.181 380.235C336.571 379.449 337.109 378.843 337.795 378.417C338.488 377.99 339.277 377.776 340.161 377.776C341.528 377.776 342.632 378.25 343.473 379.196C344.32 380.142 344.744 381.401 344.744 382.972V383.092C344.744 384.069 344.556 384.948 344.178 385.727C343.807 386.5 343.272 387.103 342.573 387.536C341.881 387.969 341.083 388.186 340.18 388.186C338.819 388.186 337.715 387.712 336.868 386.766C336.027 385.82 335.606 384.567 335.606 383.009V382.888ZM337.332 383.092C337.332 384.206 337.588 385.099 338.102 385.773C338.621 386.448 339.314 386.785 340.18 386.785C341.052 386.785 341.744 386.444 342.258 385.764C342.771 385.078 343.028 384.119 343.028 382.888C343.028 381.787 342.765 380.897 342.239 380.216C341.72 379.53 341.027 379.187 340.161 379.187C339.314 379.187 338.63 379.524 338.111 380.198C337.591 380.872 337.332 381.837 337.332 383.092ZM268.234 404.517C268.234 403.119 268.419 401.777 268.791 400.491C269.168 399.204 269.728 398.035 270.47 396.984C271.212 395.932 271.982 395.19 272.78 394.757L273.132 395.889C272.229 396.582 271.487 397.639 270.906 399.062C270.331 400.485 270.015 402.077 269.959 403.84L269.95 404.628C269.95 407.016 270.386 409.088 271.258 410.844C271.784 411.896 272.409 412.718 273.132 413.312L272.78 414.36C271.957 413.903 271.172 413.136 270.423 412.06C268.964 409.957 268.234 407.443 268.234 404.517ZM283.291 405.092C283.291 406.626 282.938 407.86 282.233 408.794C281.528 409.722 280.582 410.186 279.395 410.186C278.127 410.186 277.146 409.737 276.454 408.84L276.37 410H274.793V395.75H276.509V401.066C277.202 400.206 278.158 399.776 279.376 399.776C280.594 399.776 281.55 400.237 282.243 401.159C282.942 402.08 283.291 403.342 283.291 404.944V405.092ZM281.575 404.897C281.575 403.729 281.349 402.826 280.897 402.188C280.446 401.551 279.797 401.233 278.949 401.233C277.817 401.233 277.004 401.759 276.509 402.81V407.152C277.035 408.203 277.854 408.729 278.968 408.729C279.79 408.729 280.431 408.41 280.888 407.773C281.346 407.136 281.575 406.178 281.575 404.897ZM287.327 410H285.61V399.962H287.327V410ZM285.471 397.299C285.471 397.021 285.555 396.786 285.722 396.594C285.895 396.403 286.148 396.307 286.482 396.307C286.816 396.307 287.07 396.403 287.243 396.594C287.416 396.786 287.503 397.021 287.503 397.299C287.503 397.578 287.416 397.81 287.243 397.995C287.07 398.181 286.816 398.273 286.482 398.273C286.148 398.273 285.895 398.181 285.722 397.995C285.555 397.81 285.471 397.578 285.471 397.299ZM296.279 410C296.18 409.802 296.1 409.45 296.038 408.942C295.24 409.771 294.288 410.186 293.181 410.186C292.191 410.186 291.378 409.907 290.741 409.351C290.11 408.788 289.794 408.076 289.794 407.217C289.794 406.172 290.19 405.361 290.982 404.786C291.78 404.205 292.899 403.914 294.34 403.914H296.01V403.125C296.01 402.526 295.831 402.049 295.472 401.697C295.113 401.338 294.585 401.159 293.886 401.159C293.273 401.159 292.76 401.313 292.346 401.623C291.931 401.932 291.724 402.306 291.724 402.745H289.999C289.999 402.244 290.175 401.762 290.527 401.298C290.886 400.828 291.368 400.457 291.975 400.185C292.587 399.912 293.258 399.776 293.988 399.776C295.144 399.776 296.05 400.067 296.706 400.648C297.362 401.224 297.702 402.018 297.727 403.033V407.653C297.727 408.574 297.844 409.307 298.079 409.852V410H296.279ZM293.431 408.692C293.969 408.692 294.479 408.553 294.962 408.274C295.444 407.996 295.794 407.634 296.01 407.189V405.129H294.665C292.562 405.129 291.511 405.745 291.511 406.976C291.511 407.514 291.69 407.934 292.049 408.237C292.408 408.54 292.868 408.692 293.431 408.692ZM306.262 407.337C306.262 406.874 306.085 406.515 305.733 406.261C305.387 406.001 304.777 405.779 303.905 405.593C303.039 405.408 302.35 405.185 301.836 404.925C301.329 404.666 300.952 404.356 300.705 403.998C300.463 403.639 300.343 403.212 300.343 402.717C300.343 401.895 300.689 401.199 301.382 400.63C302.081 400.061 302.971 399.776 304.054 399.776C305.192 399.776 306.113 400.07 306.818 400.658C307.53 401.245 307.885 401.997 307.885 402.912H306.16C306.16 402.442 305.959 402.037 305.557 401.697C305.161 401.357 304.66 401.187 304.054 401.187C303.429 401.187 302.94 401.323 302.588 401.595C302.235 401.867 302.059 402.222 302.059 402.662C302.059 403.076 302.223 403.388 302.551 403.599C302.879 403.809 303.469 404.01 304.323 404.202C305.182 404.393 305.878 404.622 306.41 404.888C306.942 405.154 307.335 405.476 307.588 405.853C307.848 406.224 307.978 406.679 307.978 407.217C307.978 408.114 307.619 408.834 306.902 409.378C306.184 409.917 305.254 410.186 304.109 410.186C303.305 410.186 302.594 410.043 301.976 409.759C301.357 409.474 300.872 409.078 300.519 408.571C300.173 408.058 300 407.504 300 406.911H301.716C301.747 407.486 301.976 407.944 302.402 408.284C302.835 408.618 303.404 408.785 304.109 408.785C304.759 408.785 305.278 408.655 305.668 408.395C306.064 408.129 306.262 407.777 306.262 407.337ZM314.175 404.61C314.175 405.989 313.993 407.313 313.628 408.581C313.269 409.842 312.716 411.008 311.967 412.078C311.225 413.148 310.446 413.909 309.629 414.36L309.268 413.312C310.22 412.582 310.984 411.45 311.559 409.917C312.14 408.376 312.437 406.669 312.45 404.795V404.499C312.45 403.2 312.314 401.994 312.042 400.88C311.769 399.761 311.389 398.759 310.9 397.875C310.418 396.99 309.874 396.3 309.268 395.806L309.629 394.757C310.446 395.209 311.222 395.963 311.958 397.021C312.7 398.079 313.254 399.244 313.619 400.519C313.99 401.793 314.175 403.156 314.175 404.61Z" fill="black"/>
<path d="M421.354 236.354C421.549 236.158 421.549 235.842 421.354 235.646L418.172 232.464C417.976 232.269 417.66 232.269 417.464 232.464C417.269 232.66 417.269 232.976 417.464 233.172L420.293 236L417.464 238.828C417.269 239.024 417.269 239.34 417.464 239.536C417.66 239.731 417.976 239.731 418.172 239.536L421.354 236.354ZM336 236.5H421V235.5H336V236.5Z" fill="black"/>
<path d="M354.844 219.888C354.844 218.905 355.036 218.02 355.419 217.235C355.809 216.449 356.347 215.843 357.034 215.417C357.726 214.99 358.515 214.776 359.399 214.776C360.766 214.776 361.87 215.25 362.711 216.196C363.559 217.142 363.982 218.401 363.982 219.972V220.092C363.982 221.069 363.794 221.948 363.417 222.727C363.045 223.5 362.51 224.103 361.812 224.536C361.119 224.969 360.321 225.186 359.418 225.186C358.057 225.186 356.953 224.712 356.106 223.766C355.265 222.82 354.844 221.567 354.844 220.009V219.888ZM356.57 220.092C356.57 221.206 356.826 222.099 357.34 222.773C357.859 223.448 358.552 223.785 359.418 223.785C360.29 223.785 360.983 223.444 361.496 222.764C362.009 222.078 362.266 221.119 362.266 219.888C362.266 218.787 362.003 217.897 361.478 217.216C360.958 216.53 360.265 216.187 359.399 216.187C358.552 216.187 357.869 216.524 357.349 217.198C356.83 217.872 356.57 218.837 356.57 220.092ZM372.332 224.007C371.664 224.793 370.684 225.186 369.391 225.186C368.321 225.186 367.505 224.876 366.942 224.258C366.385 223.633 366.104 222.712 366.098 221.493V214.962H367.814V221.447C367.814 222.968 368.432 223.729 369.669 223.729C370.981 223.729 371.853 223.24 372.286 222.263V214.962H374.002V225H372.369L372.332 224.007ZM378.947 212.531V214.962H380.821V216.289H378.947V222.514C378.947 222.916 379.03 223.219 379.197 223.423C379.364 223.621 379.649 223.72 380.051 223.72C380.249 223.72 380.521 223.683 380.867 223.608V225C380.416 225.124 379.977 225.186 379.55 225.186C378.783 225.186 378.205 224.954 377.815 224.49C377.425 224.026 377.23 223.367 377.23 222.514V216.289H375.403V214.962H377.23V212.531H378.947ZM391.313 220.092C391.313 221.62 390.964 222.851 390.265 223.785C389.566 224.719 388.62 225.186 387.426 225.186C386.208 225.186 385.249 224.799 384.55 224.026V228.859H382.834V214.962H384.402L384.485 216.075C385.184 215.209 386.155 214.776 387.398 214.776C388.604 214.776 389.557 215.231 390.256 216.14C390.961 217.049 391.313 218.314 391.313 219.935V220.092ZM389.597 219.897C389.597 218.766 389.356 217.872 388.874 217.216C388.391 216.561 387.729 216.233 386.888 216.233C385.849 216.233 385.07 216.694 384.55 217.615V222.412C385.064 223.327 385.849 223.785 386.907 223.785C387.729 223.785 388.382 223.46 388.864 222.811C389.353 222.155 389.597 221.184 389.597 219.897ZM399.7 224.007C399.032 224.793 398.052 225.186 396.759 225.186C395.689 225.186 394.873 224.876 394.31 224.258C393.753 223.633 393.472 222.712 393.466 221.493V214.962H395.182V221.447C395.182 222.968 395.801 223.729 397.038 223.729C398.349 223.729 399.221 223.24 399.654 222.263V214.962H401.37V225H399.737L399.7 224.007ZM406.315 212.531V214.962H408.189V216.289H406.315V222.514C406.315 222.916 406.398 223.219 406.565 223.423C406.732 223.621 407.017 223.72 407.419 223.72C407.617 223.72 407.889 223.683 408.235 223.608V225C407.784 225.124 407.345 225.186 406.918 225.186C406.151 225.186 405.573 224.954 405.183 224.49C404.793 224.026 404.599 223.367 404.599 222.514V216.289H402.771V214.962H404.599V212.531H406.315ZM422.764 217.448H415.026V215.955H422.764V217.448ZM422.764 221.298H415.026V219.814H422.764V221.298ZM431.679 214.962L431.735 216.224C432.502 215.259 433.504 214.776 434.741 214.776C436.862 214.776 437.932 215.973 437.951 218.367V225H436.234V218.357C436.228 217.634 436.061 217.099 435.733 216.752C435.412 216.406 434.908 216.233 434.221 216.233C433.665 216.233 433.176 216.381 432.755 216.678C432.335 216.975 432.007 217.365 431.772 217.847V225H430.056V214.962H431.679ZM446.003 225H444.278V213.561L440.817 214.832V213.273L445.734 211.427H446.003V225ZM452.971 215.88L450.169 215.045L450.596 213.645L453.397 214.684L453.314 211.492H454.733L454.641 214.73L457.396 213.709L457.823 215.12L454.975 215.964L456.812 218.478L455.661 219.35L453.936 216.678L452.266 219.285L451.106 218.441L452.971 215.88ZM467.87 220.092C467.87 221.62 467.521 222.851 466.822 223.785C466.123 224.719 465.177 225.186 463.983 225.186C462.764 225.186 461.806 224.799 461.107 224.026V228.859H459.391V214.962H460.958L461.042 216.075C461.741 215.209 462.712 214.776 463.955 214.776C465.161 214.776 466.114 215.231 466.812 216.14C467.518 217.049 467.87 218.314 467.87 219.935V220.092ZM466.154 219.897C466.154 218.766 465.913 217.872 465.43 217.216C464.948 216.561 464.286 216.233 463.445 216.233C462.406 216.233 461.626 216.694 461.107 217.615V222.412C461.62 223.327 462.406 223.785 463.463 223.785C464.286 223.785 464.938 223.46 465.421 222.811C465.91 222.155 466.154 221.184 466.154 219.897ZM475.524 225H473.798V213.561L470.338 214.832V213.273L475.255 211.427H475.524V225ZM490.358 217.754H494.125V219.378H490.358V223.646H488.633V219.378H484.866V217.754H488.633V213.812H490.358V217.754ZM502.558 214.962L502.614 216.224C503.381 215.259 504.383 214.776 505.62 214.776C507.741 214.776 508.811 215.973 508.83 218.367V225H507.113V218.357C507.107 217.634 506.94 217.099 506.612 216.752C506.291 216.406 505.787 216.233 505.1 216.233C504.543 216.233 504.055 216.381 503.634 216.678C503.214 216.975 502.886 217.365 502.651 217.847V225H500.935V214.962H502.558ZM520.092 225H511.242V223.766L515.917 218.571C516.61 217.785 517.086 217.148 517.346 216.66C517.612 216.165 517.745 215.655 517.745 215.129C517.745 214.424 517.532 213.846 517.105 213.394C516.678 212.943 516.109 212.717 515.398 212.717C514.544 212.717 513.88 212.961 513.403 213.45C512.933 213.932 512.698 214.606 512.698 215.472H510.982C510.982 214.229 511.381 213.224 512.179 212.457C512.983 211.69 514.056 211.307 515.398 211.307C516.653 211.307 517.646 211.638 518.376 212.299C519.106 212.955 519.471 213.83 519.471 214.925C519.471 216.255 518.623 217.838 516.929 219.675L513.311 223.599H520.092V225ZM523.85 215.88L521.048 215.045L521.475 213.645L524.276 214.684L524.193 211.492H525.612L525.52 214.73L528.275 213.709L528.702 215.12L525.854 215.964L527.69 218.478L526.54 219.35L524.814 216.678L523.145 219.285L521.985 218.441L523.85 215.88ZM538.749 220.092C538.749 221.62 538.4 222.851 537.701 223.785C537.002 224.719 536.056 225.186 534.862 225.186C533.643 225.186 532.685 224.799 531.986 224.026V228.859H530.27V214.962H531.837L531.921 216.075C532.62 215.209 533.591 214.776 534.834 214.776C536.04 214.776 536.993 215.231 537.691 216.14C538.396 217.049 538.749 218.314 538.749 219.935V220.092ZM537.033 219.897C537.033 218.766 536.792 217.872 536.309 217.216C535.827 216.561 535.165 216.233 534.324 216.233C533.285 216.233 532.505 216.694 531.986 217.615V222.412C532.499 223.327 533.285 223.785 534.342 223.785C535.165 223.785 535.817 223.46 536.3 222.811C536.788 222.155 537.033 221.184 537.033 219.897ZM549.613 225H540.762V223.766L545.438 218.571C546.131 217.785 546.607 217.148 546.867 216.66C547.133 216.165 547.266 215.655 547.266 215.129C547.266 214.424 547.052 213.846 546.625 213.394C546.199 212.943 545.63 212.717 544.918 212.717C544.065 212.717 543.4 212.961 542.924 213.45C542.454 213.932 542.219 214.606 542.219 215.472H540.502C540.502 214.229 540.901 213.224 541.699 212.457C542.503 211.69 543.576 211.307 544.918 211.307C546.174 211.307 547.167 211.638 547.896 212.299C548.626 212.955 548.991 213.83 548.991 214.925C548.991 216.255 548.144 217.838 546.449 219.675L542.831 223.599H549.613V225ZM561.237 217.754H565.004V219.378H561.237V223.646H559.512V219.378H555.745V217.754H559.512V213.812H561.237V217.754ZM573.437 214.962L573.493 216.224C574.26 215.259 575.262 214.776 576.499 214.776C578.62 214.776 579.69 215.973 579.708 218.367V225H577.992V218.357C577.986 217.634 577.819 217.099 577.491 216.752C577.17 216.406 576.666 216.233 575.979 216.233C575.422 216.233 574.934 216.381 574.513 216.678C574.093 216.975 573.765 217.365 573.53 217.847V225H571.813V214.962H573.437ZM584.616 217.411H585.906C586.716 217.399 587.353 217.185 587.817 216.771C588.281 216.357 588.513 215.797 588.513 215.092C588.513 213.508 587.724 212.717 586.147 212.717C585.405 212.717 584.811 212.93 584.366 213.357C583.927 213.778 583.707 214.337 583.707 215.036H581.991C581.991 213.966 582.38 213.079 583.16 212.374C583.945 211.662 584.941 211.307 586.147 211.307C587.421 211.307 588.42 211.644 589.144 212.318C589.867 212.992 590.229 213.929 590.229 215.129C590.229 215.716 590.037 216.285 589.654 216.836C589.277 217.386 588.76 217.798 588.104 218.07C588.847 218.305 589.419 218.694 589.821 219.239C590.229 219.783 590.433 220.448 590.433 221.233C590.433 222.446 590.037 223.407 589.246 224.119C588.454 224.83 587.424 225.186 586.156 225.186C584.888 225.186 583.855 224.842 583.058 224.156C582.266 223.469 581.87 222.563 581.87 221.438H583.596C583.596 222.149 583.828 222.718 584.292 223.145C584.755 223.571 585.377 223.785 586.156 223.785C586.985 223.785 587.619 223.568 588.058 223.135C588.497 222.702 588.717 222.081 588.717 221.271C588.717 220.485 588.476 219.882 587.993 219.461C587.511 219.041 586.815 218.824 585.906 218.812H584.616V217.411ZM594.729 215.88L591.927 215.045L592.354 213.645L595.155 214.684L595.072 211.492H596.491L596.398 214.73L599.154 213.709L599.581 215.12L596.732 215.964L598.569 218.478L597.419 219.35L595.693 216.678L594.023 219.285L592.864 218.441L594.729 215.88ZM609.628 220.092C609.628 221.62 609.278 222.851 608.58 223.785C607.881 224.719 606.934 225.186 605.741 225.186C604.522 225.186 603.564 224.799 602.865 224.026V228.859H601.148V214.962H602.716L602.8 216.075C603.499 215.209 604.47 214.776 605.713 214.776C606.919 214.776 607.871 215.231 608.57 216.14C609.275 217.049 609.628 218.314 609.628 219.935V220.092ZM607.912 219.897C607.912 218.766 607.67 217.872 607.188 217.216C606.706 216.561 606.044 216.233 605.203 216.233C604.164 216.233 603.384 216.694 602.865 217.615V222.412C603.378 223.327 604.164 223.785 605.221 223.785C606.044 223.785 606.696 223.46 607.179 222.811C607.667 222.155 607.912 221.184 607.912 219.897ZM614.137 217.411H615.426C616.236 217.399 616.874 217.185 617.337 216.771C617.801 216.357 618.033 215.797 618.033 215.092C618.033 213.508 617.245 212.717 615.667 212.717C614.925 212.717 614.332 212.93 613.886 213.357C613.447 213.778 613.228 214.337 613.228 215.036H611.511C611.511 213.966 611.901 213.079 612.68 212.374C613.466 211.662 614.461 211.307 615.667 211.307C616.942 211.307 617.94 211.644 618.664 212.318C619.388 212.992 619.75 213.929 619.75 215.129C619.75 215.716 619.558 216.285 619.174 216.836C618.797 217.386 618.281 217.798 617.625 218.07C618.367 218.305 618.939 218.694 619.341 219.239C619.75 219.783 619.954 220.448 619.954 221.233C619.954 222.446 619.558 223.407 618.766 224.119C617.974 224.83 616.945 225.186 615.677 225.186C614.409 225.186 613.376 224.842 612.578 224.156C611.786 223.469 611.391 222.563 611.391 221.438H613.116C613.116 222.149 613.348 222.718 613.812 223.145C614.276 223.571 614.897 223.785 615.677 223.785C616.506 223.785 617.139 223.568 617.579 223.135C618.018 222.702 618.237 222.081 618.237 221.271C618.237 220.485 617.996 219.882 617.514 219.461C617.031 219.041 616.335 218.824 615.426 218.812H614.137V217.411ZM632.116 217.754H635.883V219.378H632.116V223.646H630.391V219.378H626.624V217.754H630.391V213.812H632.116V217.754ZM651.19 220.092C651.19 221.626 650.838 222.86 650.133 223.794C649.428 224.722 648.481 225.186 647.294 225.186C646.026 225.186 645.046 224.737 644.353 223.84L644.27 225H642.692V210.75H644.409V216.066C645.101 215.206 646.057 214.776 647.275 214.776C648.494 214.776 649.449 215.237 650.142 216.159C650.841 217.08 651.19 218.342 651.19 219.944V220.092ZM649.474 219.897C649.474 218.729 649.248 217.826 648.797 217.188C648.345 216.551 647.696 216.233 646.849 216.233C645.717 216.233 644.903 216.759 644.409 217.81V222.152C644.934 223.203 645.754 223.729 646.867 223.729C647.69 223.729 648.33 223.41 648.788 222.773C649.245 222.136 649.474 221.178 649.474 219.897ZM655.226 225H653.51V214.962H655.226V225ZM653.371 212.299C653.371 212.021 653.454 211.786 653.621 211.594C653.794 211.403 654.048 211.307 654.382 211.307C654.716 211.307 654.969 211.403 655.143 211.594C655.316 211.786 655.402 212.021 655.402 212.299C655.402 212.578 655.316 212.81 655.143 212.995C654.969 213.181 654.716 213.273 654.382 213.273C654.048 213.273 653.794 213.181 653.621 212.995C653.454 212.81 653.371 212.578 653.371 212.299ZM664.179 225C664.08 224.802 663.999 224.45 663.938 223.942C663.14 224.771 662.187 225.186 661.08 225.186C660.09 225.186 659.277 224.907 658.64 224.351C658.009 223.788 657.694 223.076 657.694 222.217C657.694 221.172 658.09 220.361 658.881 219.786C659.679 219.205 660.799 218.914 662.24 218.914H663.91V218.125C663.91 217.526 663.73 217.049 663.372 216.697C663.013 216.338 662.484 216.159 661.785 216.159C661.173 216.159 660.66 216.313 660.245 216.623C659.831 216.932 659.624 217.306 659.624 217.745H657.898C657.898 217.244 658.074 216.762 658.427 216.298C658.785 215.828 659.268 215.457 659.874 215.185C660.486 214.912 661.157 214.776 661.887 214.776C663.044 214.776 663.95 215.067 664.605 215.648C665.261 216.224 665.601 217.018 665.626 218.033V222.653C665.626 223.574 665.743 224.307 665.979 224.852V225H664.179ZM661.331 223.692C661.869 223.692 662.379 223.553 662.861 223.274C663.344 222.996 663.693 222.634 663.91 222.189V220.129H662.564C660.462 220.129 659.41 220.745 659.41 221.976C659.41 222.514 659.59 222.934 659.948 223.237C660.307 223.54 660.768 223.692 661.331 223.692ZM674.161 222.337C674.161 221.874 673.985 221.515 673.632 221.261C673.286 221.001 672.677 220.779 671.805 220.593C670.939 220.408 670.249 220.185 669.736 219.925C669.229 219.666 668.851 219.356 668.604 218.998C668.363 218.639 668.242 218.212 668.242 217.717C668.242 216.895 668.589 216.199 669.281 215.63C669.98 215.061 670.871 214.776 671.953 214.776C673.091 214.776 674.013 215.07 674.718 215.658C675.429 216.245 675.785 216.997 675.785 217.912H674.059C674.059 217.442 673.858 217.037 673.456 216.697C673.06 216.357 672.559 216.187 671.953 216.187C671.328 216.187 670.84 216.323 670.487 216.595C670.135 216.867 669.958 217.222 669.958 217.662C669.958 218.076 670.122 218.388 670.45 218.599C670.778 218.809 671.369 219.01 672.222 219.202C673.082 219.393 673.778 219.622 674.31 219.888C674.841 220.154 675.234 220.476 675.488 220.853C675.748 221.224 675.877 221.679 675.877 222.217C675.877 223.114 675.519 223.834 674.801 224.378C674.084 224.917 673.153 225.186 672.009 225.186C671.205 225.186 670.493 225.043 669.875 224.759C669.257 224.474 668.771 224.078 668.418 223.571C668.072 223.058 667.899 222.504 667.899 221.911H669.615C669.646 222.486 669.875 222.944 670.302 223.284C670.735 223.618 671.304 223.785 672.009 223.785C672.658 223.785 673.178 223.655 673.567 223.395C673.963 223.129 674.161 222.777 674.161 222.337Z" fill="black"/>
</svg>
